<svg id="_Layer_" data-name="&lt;Layer&gt;" xmlns="http://www.w3.org/2000/svg" viewBox="0 0 2712.2 1757.06"><polygon points="1836.58 600.54 1824.52 1289.9 1772.02 1661.02 1656.13 1659.93 1616.98 1659.54 1430.92 1657.75 1415.23 1431.45 1392.92 709.17 1589.09 643.91 1589.09 643.91 1836.58 600.54" fill="#f9e9aa"/><polygon points="2211.18 1665.34 2123.22 1665.34 1871.04 1662.25 1874.66 1209.96 1883.31 126.67 2180.84 352.84 2200.65 1209.96 2211.18 1665.34" fill="#f9e9aa"/><polygon points="1339.77 1065.5 1339.77 1655.73 1181.97 1653.77 866.16 1649.91 843.57 966.45 1339.77 1065.5" fill="#f9e9aa"/><polygon points="2339.98 1209.96 2339.98 1665.34 2123.22 1665.34 1871.04 1662.25 1772.02 1661.02 1656.13 1659.62 1662.43 994.52 2339.98 1209.96" fill="#f9e9aa"/><polygon points="2479.92 640.52 2479.89 642.68 2471.88 1665.34 2263.96 1665.34 2269.45 1209.96 2275.57 699.29 2479.92 640.52" fill="#f9e9aa"/><polygon points="1616.98 1366.85 1616.98 1659.12 1430.92 1656.83 1339.77 1655.73 1181.97 1653.77 1181.97 1366.85 1616.98 1366.85" fill="#f9e9aa"/><polygon points="1713.9 782.08 1680.9 777.13 1679.1 708.89 1713.9 706.4 1713.9 782.08" fill="#f9e9aa"/><polygon points="2141.21 716.21 2108.21 711.26 2106.4 643.03 2141.21 640.53 2141.21 716.21" fill="#f9e9aa"/><polygon points="1980.66 844.24 1947.66 839.29 1945.85 771.05 1980.66 768.56 1980.66 844.24" fill="#f9e9aa"/><polygon points="1980.66 396.66 1947.66 391.71 1945.85 323.47 1980.66 320.98 1980.66 396.66" fill="#f9e9aa"/><polygon points="2015.46 1103.35 1982.46 1098.4 1980.66 1030.17 2015.46 1027.67 2015.46 1103.35" fill="#f9e9aa"/><polygon points="1713.9 1285.63 1680.9 1280.68 1679.1 1212.45 1713.9 1209.95 1713.9 1285.63" fill="#f9e9aa"/><polygon points="1651.79 1135.87 1618.79 1130.92 1616.99 1062.68 1651.79 1060.19 1651.79 1135.87" fill="#f9e9aa"/><polygon points="583.1 461.51 573.52 1209.96 567.96 1646.25 451.86 1644.82 412.71 1644.32 225.84 1642.06 210.96 1366.85 163.54 490.31 251.05 484.29 474.83 468.93 583.1 461.51" fill="#f9e9aa"/><polygon points="1006.59 1651.64 866.16 1649.91 729.15 1648.21 666.88 1647.45 670.39 1209.96 679.03 126.67 976.57 352.84 996.38 1209.96 1006.59 1651.64" fill="#f9e9aa"/><polygon points="135.5 1065.5 135.5 1640.93 77.41 1640.23 0 1639.26 1.77 1366.85 3.8 1058.78 135.5 1065.5" fill="#f9e9aa"/><polygon points="1135.71 1209.96 1135.71 1653.2 1059.84 1652.27 1006.59 1651.64 866.16 1649.91 729.15 1648.21 666.88 1647.45 567.96 1646.25 451.86 1644.82 451.86 1209.96 1135.71 1209.96" fill="#f9e9aa"/><polygon points="1275.65 724.92 1275.62 726.9 1267.7 1654.83 1254.3 1654.68 1181.97 1653.85 1135.71 1653.34 1059.84 1652.48 1065.17 1246.98 1071.29 778.8 1275.65 724.92" fill="#f9e9aa"/><polygon points="412.71 1366.85 412.71 1644.32 225.84 1642.06 135.5 1640.93 77.41 1640.23 0 1639.26 1.77 1366.85 412.71 1366.85" fill="#f9e9aa"/><polygon points="474.83 512.5 254.41 512.5 242.81 414.93 474.83 414.93 474.83 512.5" fill="#f9e9aa"/><polygon points="412.72 463.71 316.52 463.71 316.52 233.28 419.72 224.79 412.72 463.71" fill="#f9e9aa"/><rect x="355.92" y="93.59" width="17.4" height="230.43" fill="#f9e9aa"/><polygon points="266.01 634.75 233.14 634.75 231.21 561.56 266.01 566.05 266.01 634.75" fill="#f9e9aa"/><polygon points="509.63 782.08 476.63 777.13 474.83 708.89 509.63 706.4 509.63 782.08" fill="#f9e9aa"/><polygon points="936.94 716.21 903.94 711.26 902.13 643.03 936.94 640.53 936.94 716.21" fill="#f9e9aa"/><polygon points="811.19 1103.35 778.19 1098.4 776.38 1030.17 811.19 1027.67 811.19 1103.35" fill="#f9e9aa"/><polygon points="509.63 1285.63 476.63 1280.68 474.83 1212.45 509.63 1209.95 509.63 1285.63" fill="#f9e9aa"/><polygon points="447.52 1135.87 414.52 1130.92 412.72 1062.68 447.52 1060.19 447.52 1135.87" fill="#f9e9aa"/><path d="M1792.06,245.62s-29.5-56.72-104.13-49.62-65.75,64-101.29,58.64-85.3,0-96,35.54-58.64,16-60.42,46.21,55.09,51.53,120.84,24.88,97.73,20.7,190.14,12.13,103.85-19.24,158.54-13.91,53.4-32.12,28.52-57S1802.72,280,1792.06,245.62Z" transform="translate(-416.21 -195.39)" fill="#f9e9aa"/><path d="M2864.89,679.6s-14.56-28-51.39-24.49-32.45,31.57-50,28.94-42.1,0-47.36,17.54-28.94,7.89-29.81,22.8,27.18,25.43,59.63,12.27,48.23,10.22,93.83,6,51.25-9.49,78.24-6.86,26.35-15.85,14.07-28.13S2870.15,696.55,2864.89,679.6Z" transform="translate(-416.21 -195.39)" fill="#f9e9aa"/><path d="M2077.63,410s-19.34-37.21-68.29-32.55-43.12,42-66.43,38.46-56,0-62.94,23.31-38.46,10.49-39.62,30.31,36.13,33.79,79.25,16.31,64.1,13.58,124.7,8,68.12-12.62,104-9.12,35-21.07,18.7-37.39S2084.63,432.55,2077.63,410Z" transform="translate(-416.21 -195.39)" fill="#f9e9aa"/><path d="M1965.7,1821.91H1291.56a51.11,51.11,0,0,1-51.08-49.61L1207,628.67a51.1,51.1,0,0,1,51.08-52.6h737.32a51.1,51.1,0,0,1,51.08,52.43l-29.67,1143.63A51.1,51.1,0,0,1,1965.7,1821.91Z" transform="translate(-416.21 -195.39)" fill="#002b34"/><path d="M1263.22,1682.16,1246.91,659.87a47,47,0,0,1,47-47.71h675.69a47,47,0,0,1,46.94,48.34l-29.9,1022.28a47,47,0,0,1-46.95,45.59H1310.18A47,47,0,0,1,1263.22,1682.16Z" transform="translate(-416.21 -195.39)" fill="#ffbb01"/><path d="M691.75,1042.15c-39.69,7.55-84.61.45-133.68-21.14a373.72,373.72,0,0,1-64.44-36.25L537,922.69l-21.68,31,21.62-31.09c22.57,16.41,92.59,56.16,144.92,43.28,23.76-5.85,42.09-22.31,56-50.32l66.86,35.17c-23.75,47.68-60.08,78.68-105.07,89.66C697.06,1041.07,694.41,1041.64,691.75,1042.15Z" transform="translate(-416.21 -195.39)" fill="#ffad97"/><path d="M596.23,993s-24.66-36.72-49.72-48S505.56,943,505.56,943l-26.89-10.74s-3.86,102,66,84.05C550.22,1014.91,596.23,993,596.23,993Z" transform="translate(-416.21 -195.39)" fill="#ffad97"/><path d="M482.67,879.1,508.36,1027A17.44,17.44,0,0,0,529,1041.09l68.82-13.94a17.44,17.44,0,0,0,13.72-20.08L586.24,861.34a17.45,17.45,0,0,0-20.12-14.21l-69.19,11.8A17.44,17.44,0,0,0,482.67,879.1Z" transform="translate(-416.21 -195.39)" fill="#002b34"/><path d="M493.43,874.51a4.6,4.6,0,1,1,4.47,4.72A4.61,4.61,0,0,1,493.43,874.51Z" transform="translate(-416.21 -195.39)" fill="#f4f4f4"/><path d="M470,921.45s-7.08-15.54,7.15-21.91c18.14-8.11,48.51-.83,37.09,4.47-10.13,4.69-26.11,7.92-26.11,7.92s40.75-7.64,39.44,1.36-36.43,15.1-36.43,15.1,40.37-3.7,36.38,4.41-35.84,13.83-35.84,13.83,39.25-5.73,34.4,3.57-25.75,8.16-34.72,9.7c-8.47,1.45-12.15-3.54-13-11.82,0,0-5.6-7.76-4.76-13.3.31-2.12-1.94-3.79-2.37-5.24A54.47,54.47,0,0,1,470,921.45Z" transform="translate(-416.21 -195.39)" fill="#ffad97"/><path d="M846.55,1883.26s-.65,25.91-18.18,33.22S760,1930.39,779,1947.05c10.89,9.56,62.23,3.38,76.72,3.38s28.11,6.32,38.88-3.38c11.85-10.68,0-63.79,0-63.79s-12.51,6.51-23.76,6.22C854.64,1889.06,846.55,1883.26,846.55,1883.26Z" transform="translate(-416.21 -195.39)" fill="#002b34"/><path d="M1047.92,1883.25s-.65,25.92-18.18,33.23-68.34,13.9-49.36,30.56c10.89,9.56,62.23,3.39,76.72,3.39s28.11,6.31,38.88-3.39c11.85-10.67,0-63.79,0-63.79s-12.51,6.52-23.76,6.23C1056,1889.06,1047.92,1883.25,1047.92,1883.25Z" transform="translate(-416.21 -195.39)" fill="#002b34"/><path d="M716.23,1172.88s-3.25,108.47,31.38,316.55c25,150.22,54.49,301.6,69,374.17,5.18,26,27,44.94,52.89,46l13.9.56c28,1.12,50.69-22.91,48.64-51.48l-35.12-491-8.66-161.6Z" transform="translate(-416.21 -195.39)" fill="#151419"/><path d="M1032.92,1268.34c-1.6,13.2-76.25,11.6-167.65,0S702.73,1237,704.33,1223.8s75.33-14.81,166.72-3.24S1034.51,1255.14,1032.92,1268.34Z" transform="translate(-416.21 -195.39)" fill="#002b34"/><path d="M821.16,1250.36l195.13,626.82c8.17,26.24,31.79,44.22,58.7,44.68l11.73.2c27.69.47,48.86-25.13,43.81-53l-106.74-589a19.4,19.4,0,0,0-13.47-14.52C973.72,1255,817.57,1224.43,821.16,1250.36Z" transform="translate(-416.21 -195.39)" fill="#151419"/><path d="M1045.36,1224.06l-44.24-51.39c.79-.49,87.63-55.32,79.31-133.39-4.33-40.7-28.73-73.44-72.51-97.31a251.58,251.58,0,0,0-69.37-25L949,850.29c1.82.3,45,7.54,90,32.1,63.3,34.52,100.33,86.24,107.07,149.58,5.45,51.15-12.43,102-51.72,147.1C1066.12,1211.41,1067.38,1213.35,1045.36,1224.06Z" transform="translate(-416.21 -195.39)" fill="#ffad97"/><path d="M1002.4,907.45s-26-73.05-118.45-69.72S721.63,962.58,704.33,1223.8c0,0,151.45-33.21,328.86,44.26C1033.19,1268.06,1043,1013.92,1002.4,907.45Z" transform="translate(-416.21 -195.39)" fill="#ffbb01"/><path d="M1075,892l-73.2,53s-168.42,16.85-213.13,8.74-57-44.27-57-44.27,47.62-54.27,128.56-68.76a221.7,221.7,0,0,1,23.67-3,230.6,230.6,0,0,1,40.91.9C1004.82,847.26,1075,892,1075,892Z" transform="translate(-416.21 -195.39)" fill="#ffbb01"/><path d="M1075,892c4,5.74-9.2,22.26-29.41,36.89s-39.82,21.84-43.79,16.1,9.2-22.25,29.42-36.88S1071.06,886.27,1075,892Z" transform="translate(-416.21 -195.39)" fill="#002b34"/><path d="M1124.86,1057.15c-3.36,0-6.48-1.86-8.78-5.24a21.24,21.24,0,0,1-3.37-11.86c0-9.43,5.45-17.1,12.15-17.1s12.16,7.67,12.16,17.1h0c0,9.43-5.46,17.1-12.16,17.1Zm0-31c-4.84,0-8.94,6.36-8.94,13.89a18.07,18.07,0,0,0,2.81,10.06c1.69,2.47,3.86,3.83,6.13,3.83,4.85,0,9-6.36,9-13.89S1129.71,1026.16,1124.86,1026.16Z" transform="translate(-416.21 -195.39)" fill="#f47c53"/><path d="M924.7,838.61a27.53,27.53,0,0,1-22.42-16.4L890,793.58l-3.57-8.31-21-48.86L869,787l2.19,30.39.63,8.67a13.84,13.84,0,0,1-11.41,14.58l-.12,0c-3.74,6.08-8.92,18.46,6.53,23.37,18.15,5.78,47.51-8.51,58.05-25.44Z" transform="translate(-416.21 -195.39)" fill="#ffad97"/><path d="M1036.79,1150s-27.4-25.09-49-22.87-47.6,21.4-33.89,22.87,31.73-1.48,31.73-1.48-38.23,8.12-32.46,16.24,39,.74,39,.74-44.71,13.28-36.78,19.18,41.83-4.43,41.83-4.43-41.11,14-31.73,20.66,33.89-11.8,39.66-3.69,16.59,39.85,41.11,26.57Z" transform="translate(-416.21 -195.39)" fill="#ffad97"/><path d="M908.37,1530.52l-42-127.57a120.93,120.93,0,0,0-54.66-67.41l1.64-2.85a124.22,124.22,0,0,1,56.13,69.24l42,127.57Z" transform="translate(-416.21 -195.39)" fill="#020202"/><path d="M1015.33,946s-4.06-12.17,14.33-25.73,42.24-16.6,42.24-16.6l4.82,23.24-26,11.35Z" transform="translate(-416.21 -195.39)" fill="#ffad97"/><path d="M922.57,728.07s-2,8.31,2.82,25.34c7,24.92-21.49,35.32-28.78,28.21-.9-.88.29-43.26.29-43.26L906,733Z" transform="translate(-416.21 -195.39)" fill="#002b34"/><path d="M890,792.74q0,.42-.06.84c-1.2,16.32-18.66,23.94-18.66,23.94l-.11-.09L869,787c5.34-1.95,12.94-4,17.39-1.77C888.7,786.41,890.16,788.7,890,792.74Z" transform="translate(-416.21 -195.39)" fill="#f47c53"/><ellipse cx="446.83" cy="549.12" rx="47.57" ry="58.69" fill="#ffad97"/><path d="M844.2,699.45c1.32,1.81-6.17,32,49.77,39.21S916.3,678,875,676.47c-59.6-2.21-68.27,37.86-62.55,52.28S844.2,699.45,844.2,699.45Z" transform="translate(-416.21 -195.39)" fill="#002b34"/><path d="M930.41,662.33s-25.13,16.81-5.8,32.63,72.48,22.74,58,49.44-27.06,66.25-1,71.19,42.53,3,53.16,23.73,58,7.91,54.11-16.81,36.73-46.47,19.33-69.21-59.92-42.52-70.55-72.18S950.7,649.48,930.41,662.33Z" transform="translate(-416.21 -195.39)" fill="#002b34"/><path d="M887.8,729.05s22.86,24.1,14.93,48.73c0,0,13.26-14.49,13.55-19.89S913.05,733,913.05,733Z" transform="translate(-416.21 -195.39)" fill="#002b34"/><path d="M904.25,753.36c-5.39,5.14-12.92,5.67-16.83,1.17s-2.7-12.31,2.69-17.45,12.92-5.67,16.83-1.18S909.64,748.21,904.25,753.36Z" transform="translate(-416.21 -195.39)" fill="#ffad97"/><path d="M1077.31,847.38a1.15,1.15,0,0,1-.41-.08c-6.74-2.6-10.75-5.89-12.24-10-2.28-6.33,1.61-13.26,5.73-20.59,3.61-6.43,7.34-13.08,6.44-19-1.06-7-10.3-8.68-20.09-10.42-8.25-1.47-16.78-3-20.17-8.26-1.6-2.5-1.92-5.68-1-9.45,1.08-4.17,2.4-7.89,3.68-11.5,5.5-15.49,9.84-27.73-14.45-55.76-31.15-35.94-57-37.67-80.2-34.19-2.72.41-9.6,4-9.57,7.11,0,1.63,2.25,5.69,22.4,8.22.39.08,28.65,6.67,42.26,37.16,7.25,16.24-3,33.62-11.33,47.59-5.55,9.37-10.34,17.47-8.85,22.9a7.91,7.91,0,0,0,4.22,4.78c5.65,3.07,12,4.78,18.09,6.43,15.73,4.26,32,8.66,34.05,37a1.13,1.13,0,0,1-1.05,1.21,1.1,1.1,0,0,1-1.21-1c-1.93-26.74-16.72-30.74-32.39-35-6.24-1.69-12.69-3.43-18.57-6.63a10.11,10.11,0,0,1-5.32-6.17c-1.75-6.36,3.27-14.84,9.08-24.65,8.43-14.23,18-30.34,11.21-45.52-13.15-29.46-40.3-35.79-40.57-35.85-16.25-2-24.22-5.45-24.28-10.42s8.52-8.93,11.49-9.38c23.89-3.57,50.38-1.82,82.25,35,25.16,29,20.62,41.81,14.87,58-1.26,3.56-2.56,7.24-3.62,11.3-.82,3.18-.6,5.69.67,7.67,2.85,4.44,10.88,5.87,18.66,7.25,10.14,1.8,20.63,3.67,21.93,12.32,1,6.73-2.91,13.72-6.7,20.48s-7.5,13.36-5.58,18.71c1.26,3.5,4.83,6.34,10.93,8.7a1.13,1.13,0,0,1,.65,1.46A1.15,1.15,0,0,1,1077.31,847.38Z" transform="translate(-416.21 -195.39)" fill="#fff"/><path d="M894.41,720.86h0c-21.51-.45-32.2-17.39-32.65-18.11a1.13,1.13,0,1,1,1.93-1.19c.1.17,10.52,16.61,30.77,17a1.13,1.13,0,0,1,0,2.26Z" transform="translate(-416.21 -195.39)" fill="#fff"/><path d="M985.87,1149.28l-.56-1.51c.44-.16,11-4,16.82.1l-.93,1.31C996.05,1145.53,986,1149.24,985.87,1149.28Z" transform="translate(-416.21 -195.39)" fill="#f47c53"/><path d="M992.37,1166.24l-.59-1.49c.43-.17,10.58-4.1,19.82,0l-.65,1.47C1002.32,1162.39,992.47,1166.2,992.37,1166.24Z" transform="translate(-416.21 -195.39)" fill="#f47c53"/><path d="M997.41,1181l-.57-1.5c.53-.2,13-4.8,18.84.14l-1,1.23C1009.5,1176.53,997.53,1181,997.41,1181Z" transform="translate(-416.21 -195.39)" fill="#f47c53"/><path d="M717.87,1235.62s42.48-5.91,106.27-1.19c98.8,7.3,182.71,30.17,182.71,30.17l-31.36,5.27-196.38,7.78-39.53-32.42Z" transform="translate(-416.21 -195.39)" fill="#151419"/><path d="M836.77,782.49a103.32,103.32,0,0,0,32.5-5.34s1.35,16-16.25,17.09C842.79,794.87,836.77,782.49,836.77,782.49Z" transform="translate(-416.21 -195.39)" fill="#e9633e"/><path d="M836.77,782.49s3.93,3.26,13.11,3.22,19.39-8.56,19.39-8.56S849.69,782.53,836.77,782.49Z" transform="translate(-416.21 -195.39)" fill="#fff"/><path d="M858.44,745.07a1.07,1.07,0,0,1-.72-.64,1.08,1.08,0,0,1,.6-1.41c.32-.13,7.61-3.87,14,3.13a1.1,1.1,0,0,1,0,1.53,1.19,1.19,0,0,1-1.53,0c-5-3.34-11.37-2.71-11.64-2.61A1.06,1.06,0,0,1,858.44,745.07Z" transform="translate(-416.21 -195.39)" fill="#002b34"/><path d="M867,757c.08,2.58-1.37,4.72-3.24,4.78s-3.46-2-3.54-4.56,1.37-4.72,3.24-4.78S866.92,754.38,867,757Z" transform="translate(-416.21 -195.39)" fill="#002b34"/><path d="M819.81,750.71a1.08,1.08,0,0,1-.89-1.84c.25-.25,5.56-6.49,14.14-2.45a1.09,1.09,0,0,1,.55,1.43,1.19,1.19,0,0,1-1.43.54,18.49,18.49,0,0,0-11.75,2A1.05,1.05,0,0,1,819.81,750.71Z" transform="translate(-416.21 -195.39)" fill="#002b34"/><path d="M832.26,758.45c1.06,2.35.53,4.88-1.18,5.65s-4-.52-5-2.87-.53-4.89,1.18-5.66S831.2,756.09,832.26,758.45Z" transform="translate(-416.21 -195.39)" fill="#002b34"/><rect x="748.16" y="924.46" width="46.23" height="2.27" transform="translate(-824.91 973.59) rotate(-61.85)" fill="#002b34"/><path d="M1445.23,1655.54a8.14,8.14,0,0,1-2.45-15.9c45.32-14.32,86.69-39,123-73.35a366.71,366.71,0,0,0,82-116.59c38.45-86.6,40.46-180.06,5.53-256.4-55.67-121.68-321.14-441.71-323.82-444.93A8.14,8.14,0,0,1,1342,738c.67.81,68,81.88,141.37,177.08,98.78,128.12,160.93,219.46,184.73,271.48,36.87,80.58,34.88,178.91-5.46,269.77a383.16,383.16,0,0,1-85.71,121.8c-38.07,36.06-81.56,62-129.25,77.06A8,8,0,0,1,1445.23,1655.54Z" transform="translate(-416.21 -195.39)" fill="#94c358"/><rect x="1397.28" y="758.1" width="306.39" height="14.92" transform="translate(-571.84 851.67) rotate(-35.65)" fill="#94c358"/><rect x="1527.87" y="912.16" width="415.53" height="14.92" transform="translate(-633.68 932.77) rotate(-34.01)" fill="#94c358"/><rect x="1678.21" y="695.14" width="14.92" height="234.9" transform="translate(-539.39 1096.6) rotate(-40.58)" fill="#94c358"/><rect x="1623.17" y="1061.41" width="372.61" height="14.92" transform="translate(-703.93 1009.25) rotate(-34.27)" fill="#94c358"/><path d="M1766.83,1369.12c-42.07,0-86.47-6-124.95-24-123.39-57.87-355.11-81.84-357.44-82.07l1.5-14.84c9.6,1,236.6,24.47,362.28,83.41,121.74,57.09,310.72-11.7,312.61-12.4l5.18,14c-2,.73-49.51,18.18-113.33,28.6A539.64,539.64,0,0,1,1766.83,1369.12Z" transform="translate(-416.21 -195.39)" fill="#94c358"/><path d="M1507.87,1249.27s109.15,59.12,123.84,44.15-19.4-126.92-33.54-123.15S1506.29,1237.71,1507.87,1249.27Z" transform="translate(-416.21 -195.39)" fill="#94c358"/><path d="M1895.9,1050.65s-191.19,112.42-185.76,129.43,17.52,110.21,16.89,135.47,229.34-18.26,236.39-31.75,0-269.76,0-269.76Z" transform="translate(-416.21 -195.39)" fill="#94c358"/><path d="M1501.21,1189.8l61-44.14a25.7,25.7,0,0,0,5.09-36.78l-147-185.71a25.7,25.7,0,0,0-30.82-7.43l-48.67,22.2a25.7,25.7,0,0,0-10.9,37.37L1464.57,1183A25.72,25.72,0,0,0,1501.21,1189.8Z" transform="translate(-416.21 -195.39)" fill="#94c358"/><path d="M1295.22,1223.06s154.9,26,154.06,13.56-132.37-220.08-145.92-219.3S1295.22,1223.06,1295.22,1223.06Z" transform="translate(-416.21 -195.39)" fill="#94c358"/><path d="M1596.92,759.8s-132.21,84.75-124.07,98.31,74.56,136.94,100,130.84,145.21-79.32,137.18-97S1605.73,749,1596.92,759.8Z" transform="translate(-416.21 -195.39)" fill="#94c358"/><path d="M1696.12,989.17s-94.17,55.63-86.85,64.88,34.43,49,47.08,47.22,110.19-60.57,105.72-70.51S1706.22,983.09,1696.12,989.17Z" transform="translate(-416.21 -195.39)" fill="#94c358"/><path d="M1838.29,901.79s-121.37,64.87-115,75.68,43.4,39.73,57.41,36.57,90.84-46.47,89-56S1838.29,901.79,1838.29,901.79Z" transform="translate(-416.21 -195.39)" fill="#94c358"/><path d="M1744.94,654.81s-75.93,59.51-69.61,68.58,76.84,119.35,95.82,119.35,149.16-80.36,149.16-94-73.64-104.9-82-104.9S1744.94,654.81,1744.94,654.81Z" transform="translate(-416.21 -195.39)" fill="#94c358"/><path d="M1380.64,723.39s53.21,75.44,68.64,72.53,173.4-124.26,171.36-134.43-267.11-8.81-264.4,8.14S1380.64,723.39,1380.64,723.39Z" transform="translate(-416.21 -195.39)" fill="#94c358"/><path d="M1329.12,778.93s79.55,80.54,56,95.22-94.91,27.35-99.43,8.36S1266.75,734.1,1329.12,778.93Z" transform="translate(-416.21 -195.39)" fill="#94c358"/><path d="M1313.65,1299.21s99.54,15,148.35,27,178.49,54,173.31,66.18-106.63,195.07-212.51,185-136.79-26.26-137.61-70.85S1265.64,1284.71,1313.65,1299.21Z" transform="translate(-416.21 -195.39)" fill="#94c358"/><path d="M1919,1375.08s-137,31.06-170.85,30.26-36.57,52.09-56.25,84.63-53.58,98,4.73,104.59,215-82.75,215-82.75,52.56-2.1,55-36.75S1948.17,1368.67,1919,1375.08Z" transform="translate(-416.21 -195.39)" fill="#94c358"/><path d="M1789.21,640.79c-66.93,4-99.72,54.44-104.3,121.37-4.59,66.25,66.93,162.84,102.25,206.16a24.79,24.79,0,0,0,38.34.19c34.25-41.46,102.15-131.81,102.15-196.4C1927.65,705.08,1872.33,635.81,1789.21,640.79Zm8.48,198.74c-38.63-1.56-67.41-29.08-67.41-67.71s16.29-66.35,71.8-75.81c47.52-8.1,70.25,35.12,73.28,73.66C1879,816.41,1850.67,841.77,1797.69,839.53Z" transform="translate(-416.21 -195.39)" fill="#151419"/><path d="M1793.73,985.67a25.63,25.63,0,0,1-19.61-9.07c-33.32-38.91-110.49-136.71-107.45-204.34,1.54-34.77,10.85-64.35,26.93-85.54,17.74-23.37,43.09-36.59,75.35-39.3h0c36.34-3.06,71,8.38,97.53,32.21,27.41,24.59,44.3,60.75,45.17,96.73.68,28.31-11.35,64.75-35.77,108.29-20.27,36.14-44.81,69.53-61.83,91.18a25.77,25.77,0,0,1-19.85,9.84Zm-24.61-336.2c-31.65,2.66-56.5,15.62-73.87,38.5-15.83,20.85-25,50-26.52,84.38-3,66.89,73.8,164.18,107,202.91a23.77,23.77,0,0,0,36.74-.7c29.74-37.83,98.73-132.88,97.15-198.15-.85-35.42-17.48-71-44.48-95.25-26.12-23.44-60.21-34.7-96-31.69Zm16,198.51-2.77,0h0c-19.13-.32-36.65-7.09-49.36-19.07-12.89-12.15-20.24-29.2-20.69-48-1.08-44.55,20.75-68.78,70.79-78.56,17.08-3.34,32.16-.27,44.84,9.12,16.85,12.49,28.6,36.28,31.41,63.65,2.23,21.92-2.5,39.4-14.06,52C1832.62,840.77,1811.86,848,1785.08,848ZM1796,703.09a65.67,65.67,0,0,0-12.54,1.26c-62.61,12.24-69.82,47.31-69.12,76.49.44,18.24,7.56,34.78,20,46.55,12.33,11.63,29.37,18.2,48,18.5h0c27.54.51,48.74-6.49,61.38-20.22,11.14-12.11,15.69-29.06,13.53-50.36-2.76-26.8-14.19-50.06-30.59-62.21A50.39,50.39,0,0,0,1796,703.09Z" transform="translate(-416.21 -195.39)" fill="#151419"/><path d="M2963.38,747.64c-79.78,4.76-118.85,64.89-124.32,144.67-5.46,79,79.78,194.1,121.88,245.73a29.55,29.55,0,0,0,45.7.24c40.82-49.43,121.77-157.12,121.77-234.11C3128.41,824.28,3062.47,741.71,2963.38,747.64Zm10.12,236.89c-46.05-1.86-80.36-34.65-80.36-80.71s19.42-79.08,85.59-90.36c56.64-9.65,83.74,41.87,87.34,87.8C3070.38,957,3036.65,987.21,2973.5,984.53Z" transform="translate(-416.21 -195.39)" fill="#f74f4f"/><path d="M2962.15,1150.33h-.2a30.71,30.71,0,0,1-23.77-11.43c-21.82-26.76-53.22-68.06-78.9-112.8-31.11-54.21-45.68-99.26-43.28-133.89,2.84-41.41,14.8-76.41,34.59-101.21,21.83-27.37,52.45-42.41,91-44.72h0c43.44-2.6,84.41,12,115.4,41.23,32,30.12,51.07,73.73,51.07,116.66,0,75.83-76.49,179.77-122.08,235A30.84,30.84,0,0,1,2962.15,1150.33ZM2941.76,749c-37.76,2.26-67.72,17-89.05,43.7-19.45,24.37-31.2,58.85-34,99.71-5.51,79.59,83.18,197.7,121.57,244.79a28,28,0,0,0,21.68,10.43h.19a28.11,28.11,0,0,0,21.74-10.21c20.85-25.24,51-64.21,76.07-106.54,30.12-50.78,45.38-93.41,45.38-126.7,0-42.19-18.77-85.07-50.21-114.69-30.44-28.66-70.7-43-113.37-40.49Zm17.46,237.06c-2.45,0-4.94-.06-7.48-.16h0c-22.81-.93-43.53-9.51-58.35-24.18-15-14.88-23.31-35.44-23.31-57.89,0-53.19,26.74-81.47,86.72-91.7,20.49-3.49,38.41.61,53.27,12.19,19.75,15.39,33.08,44.12,35.65,76.85,2,26.21-4.13,46.94-18.3,61.61C3012.65,978.06,2989.17,986.05,2959.22,986.05Zm11.29-172.42a78.62,78.62,0,0,0-13.26,1.17c-31.35,5.34-53.21,15.71-66.8,31.68-11.88,14-17.66,32.72-17.66,57.34,0,21.72,8,41.6,22.51,56,14.33,14.19,34.42,22.49,56.55,23.39h0c32.73,1.38,58.2-6.33,73.62-22.3,13.6-14.08,19.51-34.1,17.54-59.51-2.51-32-15.45-60-34.61-74.92A60.06,60.06,0,0,0,2970.51,813.63Z" transform="translate(-416.21 -195.39)" fill="#151419"/><path d="M1666.92,1164.39a34.36,34.36,0,0,1-5.43-.43,33.75,33.75,0,0,1-22.18-13.71c-77.37-107.47-76.09-114.64-75.32-118.92a6.41,6.41,0,0,1,2.71-4.25l130.1-87.79a5.42,5.42,0,1,1,6.07,9l-127.63,86.12c2.5,6.62,15.4,29.68,72.88,109.52a23,23,0,0,0,15.09,9.33,22.74,22.74,0,0,0,17.06-4.07c39.37-28.61,144-103.4,265.66-179.87C2068.82,892,2141.73,892.56,2206,893c7.26.05,14.76.11,22.08.05,27.6-.24,62.3.39,95.85,1,46.27.84,98.53,1.79,108.31-.5,2.39-4.6,2.8-25.3,3.1-40.56.84-42.47,1.89-95.33,28-103.54,18.2-5.71,54.9-7.7,91.32-5,30.09,2.28,67.22,8.23,73.19,23.7,3.27,8.46.45,32.78-5.25,78.62-7,56.19-17.55,141.09-3.24,158.47a5.11,5.11,0,0,0,3.81,2.23c4.38.31,9.63.72,15.59,1.19,46,3.62,141.81,11.16,184-5.34a5.42,5.42,0,1,1,3.95,10.1c-44.45,17.41-138.32,10-188.75,6-5.92-.46-11.15-.87-15.49-1.18a16.11,16.11,0,0,1-11.44-6.15c-16-19.44-9.41-84.14.85-166.71,3.91-31.43,8.34-67.06,5.91-73.37-2.3-5.93-23.27-13.72-63.89-16.79-34.64-2.62-70.52-.77-87.26,4.48-18.71,5.87-19.76,58.55-20.45,93.4-.66,33.7-1.27,47.49-9.62,50.38-8.77,3-48.59,2.48-112.83,1.31-33.48-.61-68.1-1.24-95.56-1-7.4.07-14.95,0-22.25,0-65.89-.48-134-1-254.25,74.62-121.33,76.3-225.78,150.92-265,179.46A33.41,33.41,0,0,1,1666.92,1164.39Z" transform="translate(-416.21 -195.39)" fill="#151419"/></svg>