<svg id="content" xmlns="http://www.w3.org/2000/svg" viewBox="0 0 297.32 311.61"><g id="illustration"><path d="M367.44,275.22a16.39,16.39,0,0,0,1.47-7.27V85.35c0-9.88-6-21.35-13.38-25.63l-69.08-40c-3.13-1.81-6-2-8.27-.95h0a24.25,24.25,0,0,0-7.5,4.81l2.52,3.86h0a20.68,20.68,0,0,0-.15,2.42V212.47c0,9.88,6,21.36,13.39,25.64l69.08,40,2.39,4.7a14.67,14.67,0,0,0,9.26-7,.36.36,0,0,0,0-.09c.07-.13.14-.26.2-.39Z" transform="translate(-144.68 -12.7)" fill="#150035"/><path d="M357.46,283.72l-2.56-5L286,238.83c-7.61-4.41-13.8-16.23-13.8-26.36V29.88a21.38,21.38,0,0,1,.12-2.19l-2.75-4.21.49-.48a24.89,24.89,0,0,1,7.8-5l.08,0c2.61-1.17,5.68-.81,8.89,1.05L356,59c7.61,4.4,13.79,16.23,13.79,26.35V268a17.37,17.37,0,0,1-1.54,7.62l-.08.17c-.06.11-.11.22-.17.32l-.06.11a15.36,15.36,0,0,1-9.82,7.44ZM274.15,26.39,274,27.55a22.11,22.11,0,0,0-.14,2.33V212.47c0,9.6,5.82,20.78,13,24.92l69.3,40.1,2.2,4.33a14.1,14.1,0,0,0,8.09-6.47l.18-.35.05-.11.76.33-.74-.36a15.68,15.68,0,0,0,1.38-6.91V85.35c0-9.59-5.81-20.77-13-24.91L286,20.46c-2.78-1.61-5.37-1.92-7.5-.92l-.4.19-.05,0a23.37,23.37,0,0,0-6.33,4l1.82,2.78Z" transform="translate(-144.68 -12.7)" fill="#150035"/><path d="M349.68,281.81l-69.09-40c-7.39-4.28-13.38-15.75-13.38-25.63V33.6c0-9.88,6-14.42,13.38-10.14l69.09,40c7.39,4.27,13.38,15.75,13.38,25.63V271.67C363.06,281.55,357.07,286.09,349.68,281.81Z" transform="translate(-144.68 -12.7)" fill="#fff"/><path d="M355,284.25a11.52,11.52,0,0,1-5.74-1.72l-69.08-40c-7.61-4.4-13.8-16.22-13.8-26.35V33.6c0-5.5,1.84-9.71,5-11.57,2.7-1.56,6.1-1.31,9.59.71l69.08,40c7.61,4.41,13.8,16.23,13.8,26.36V271.67c0,5.5-1.84,9.72-5,11.57A7.56,7.56,0,0,1,355,284.25ZM275.27,22.69a6,6,0,0,0-3,.78C269.57,25,268,28.71,268,33.6V216.2c0,9.6,5.82,20.77,13,24.91l69.08,40c3,1.71,5.77,2,7.93.71,2.68-1.55,4.21-5.24,4.21-10.13V89.08c0-9.6-5.82-20.78-13-24.91l-69.08-40A10,10,0,0,0,275.27,22.69Z" transform="translate(-144.68 -12.7)" fill="#150035"/><path d="M345.49,66.8l-24.38-14a.5.5,0,0,0-.74.43v1.56a3.27,3.27,0,0,1-5,2.81L314,56.77a8.11,8.11,0,0,1-3.92-6.94h0a6.29,6.29,0,0,0-3.13-5.43l-27.81-16c-3.72-2.15-6.76-.39-6.76,3.92V216.9c0,7.91,5.59,17.62,12.42,21.57l66.39,38.42c3.72,2.16,6.76.39,6.76-3.91V88.37C357.92,80.46,352.33,70.76,345.49,66.8Z" transform="translate(-144.68 -12.7)" fill="#ffb000"/><path d="M354.16,278.65a6.9,6.9,0,0,1-3.42-1l-66.38-38.42c-7.08-4.09-12.84-14.09-12.84-22.29V32.3c0-2.4.85-4.21,2.4-5.1s3.54-.73,5.61.46l27.8,16a7.11,7.11,0,0,1,3.55,6.15,7.31,7.31,0,0,0,3.51,6.22l1.45.87a2.44,2.44,0,0,0,3.7-2.1V53.26a1.33,1.33,0,0,1,2-1.15l24.39,14c7.08,4.1,12.84,14.1,12.84,22.29V273c0,2.39-.85,4.2-2.4,5.1A4.34,4.34,0,0,1,354.16,278.65ZM276.11,28.29a2.7,2.7,0,0,0-1.36.35c-1,.59-1.57,1.88-1.57,3.66V216.9c0,7.67,5.39,17,12,20.85l66.38,38.42c1.53.89,2.94,1.05,3.95.47s1.57-1.89,1.57-3.66V88.37c0-7.66-5.39-17-12-20.85L321.2,53.85v1A4.11,4.11,0,0,1,315,58.35l-1.44-.87a9,9,0,0,1-4.32-7.65,5.42,5.42,0,0,0-2.72-4.7l-27.8-16A5.37,5.37,0,0,0,276.11,28.29Z" transform="translate(-144.68 -12.7)" fill="#150035"/><path d="M316.84,53.74c0,1.09-.77,1.53-1.71,1a3.79,3.79,0,0,1-1.7-3c0-1.09.76-1.53,1.7-1A3.8,3.8,0,0,1,316.84,53.74Z" transform="translate(-144.68 -12.7)" fill="#150035"/><rect x="359.64" y="72.71" width="5.99" height="0.83" transform="translate(-133.85 174.81) rotate(-29.41)" fill="#ffb000"/><path d="M280.22,23.2l-.61-.57a12.24,12.24,0,0,1,5.76-3.3l.19.81A11.58,11.58,0,0,0,280.22,23.2Z" transform="translate(-144.68 -12.7)" fill="#ffb000"/><path d="M283,24.78l-.62-.56a12.31,12.31,0,0,1,5.76-3.3l.19.81A11.64,11.64,0,0,0,283,24.78Z" transform="translate(-144.68 -12.7)" fill="#ffb000"/><polygon points="218.07 69.23 217.7 68.48 223.06 65.81 223.44 66.56 218.07 69.23" fill="#ffb000"/><path d="M363.72,271.46l-.38-.74a30.16,30.16,0,0,0,5.29-3.55l.57.61A30.82,30.82,0,0,1,363.72,271.46Z" transform="translate(-144.68 -12.7)" fill="#ffb000"/><path d="M363.72,275l-.38-.74a30.16,30.16,0,0,0,5.29-3.55l.57.61A30.23,30.23,0,0,1,363.72,275Z" transform="translate(-144.68 -12.7)" fill="#ffb000"/><path d="M365.3,166.28a1.11,1.11,0,0,1-.59-.16,1.7,1.7,0,0,1-.72-1.56V152.18a4,4,0,0,1,1.7-3.22l.22-.12a1.33,1.33,0,0,1,1.39-.08,1.7,1.7,0,0,1,.72,1.56V162.7a4,4,0,0,1-1.7,3.22l-.22.12A1.57,1.57,0,0,1,365.3,166.28Zm1.41-16.85a.75.75,0,0,0-.39.13l-.22.12a3.21,3.21,0,0,0-1.28,2.5v12.38a1,1,0,0,0,.31.84.59.59,0,0,0,.56-.08l.22-.13a3.18,3.18,0,0,0,1.28-2.49V150.32a1,1,0,0,0-.31-.84A.34.34,0,0,0,366.71,149.43Z" transform="translate(-144.68 -12.7)" fill="#ffb000"/><path d="M365.3,146.42a1.11,1.11,0,0,1-.59-.16,1.72,1.72,0,0,1-.72-1.57V132.32a4,4,0,0,1,1.7-3.22l.22-.13a1.35,1.35,0,0,1,1.39-.07,1.7,1.7,0,0,1,.72,1.56v12.38a4,4,0,0,1-1.7,3.21l-.22.13A1.57,1.57,0,0,1,365.3,146.42Zm1.41-16.85a.75.75,0,0,0-.39.13l-.22.12a3.21,3.21,0,0,0-1.28,2.5v12.37c0,.42.11.74.31.85a.59.59,0,0,0,.56-.08l.22-.13a3.18,3.18,0,0,0,1.28-2.49V130.46a1,1,0,0,0-.31-.84A.26.26,0,0,0,366.71,129.57Z" transform="translate(-144.68 -12.7)" fill="#ffb000"/><path d="M365.3,123.76a1.11,1.11,0,0,1-.59-.16A1.7,1.7,0,0,1,364,122v-7a4,4,0,0,1,1.7-3.22l.22-.12a1.33,1.33,0,0,1,1.39-.08,1.7,1.7,0,0,1,.72,1.56v7a4,4,0,0,1-1.7,3.21l-.22.13A1.66,1.66,0,0,1,365.3,123.76Zm1.41-11.43a.75.75,0,0,0-.39.13l-.22.12a3.21,3.21,0,0,0-1.28,2.5v7c0,.42.11.73.31.84s.42,0,.56-.07l.22-.13a3.21,3.21,0,0,0,1.28-2.49v-7a1,1,0,0,0-.31-.84A.34.34,0,0,0,366.71,112.33Z" transform="translate(-144.68 -12.7)" fill="#ffb000"/><path d="M366.12,117.62l-.23.13c-.82.47-1.49,0-1.49-1.13v-1.54a3.6,3.6,0,0,1,1.49-2.86l.23-.12c.82-.48,1.48,0,1.48,1.12v1.55A3.58,3.58,0,0,1,366.12,117.62Z" transform="translate(-144.68 -12.7)" fill="#ffb000"/><path d="M365.3,118.34a1.2,1.2,0,0,1-.59-.15,1.73,1.73,0,0,1-.72-1.57v-1.54a4,4,0,0,1,1.7-3.22l.22-.12a1.33,1.33,0,0,1,1.39-.08,1.7,1.7,0,0,1,.72,1.56v1.55a4,4,0,0,1-1.7,3.21l-.22.13A1.55,1.55,0,0,1,365.3,118.34Zm1.41-6a.75.75,0,0,0-.39.13l-.22.12a3.21,3.21,0,0,0-1.28,2.5v1.54c0,.42.11.74.31.85a.65.65,0,0,0,.56-.08l.22-.13a3.18,3.18,0,0,0,1.28-2.49v-1.55a1,1,0,0,0-.31-.84A.34.34,0,0,0,366.71,112.33Z" transform="translate(-144.68 -12.7)" fill="#ffb000"/><polygon points="213.94 59.44 213.52 58.73 218.84 55.56 219.26 56.27 213.94 59.44" fill="#ffb000"/><path d="M292.86,18.21,288.46,16A16.28,16.28,0,0,0,280,14.18l-.1-1.44a17.8,17.8,0,0,1,9.25,1.94l4.39,2.25Z" transform="translate(-144.68 -12.7)" fill="#150035"/><path d="M263.28,51.06h-1.44V30.14a15.7,15.7,0,0,1,2.55-8.72,19.33,19.33,0,0,1,11-7.84l.4,1.39a17.57,17.57,0,0,0-10.18,7.25,14.28,14.28,0,0,0-2.31,7.92Z" transform="translate(-144.68 -12.7)" fill="#150035"/><rect x="117.16" y="42.48" width="1.44" height="12.14" fill="#150035"/><path d="M279.34,245.48l-1.43.83a.64.64,0,0,1-.57,0L276,245.5c-.17-.09-.19-.24,0-.33l1.42-.82a.61.61,0,0,1,.57,0l1.35.78C279.46,245.25,279.48,245.4,279.34,245.48Z" transform="translate(-144.68 -12.7)" fill="#150035"/><path d="M275.84,247.5l-1.43.83a.67.67,0,0,1-.57,0l-1.34-.78c-.17-.1-.19-.25,0-.33l1.43-.83a.64.64,0,0,1,.57,0l1.34.77C276,247.27,276,247.42,275.84,247.5Z" transform="translate(-144.68 -12.7)" fill="#150035"/><path d="M282.65,247.4l-1.42.83a.64.64,0,0,1-.57,0l-1.35-.78c-.16-.09-.18-.24,0-.33l1.43-.82a.64.64,0,0,1,.57,0l1.34.78C282.78,247.17,282.8,247.32,282.65,247.4Z" transform="translate(-144.68 -12.7)" fill="#150035"/><path d="M279.16,249.42l-1.43.83a.67.67,0,0,1-.57,0l-1.34-.78c-.17-.1-.19-.25,0-.33l1.42-.83a.64.64,0,0,1,.57,0l1.35.77C279.29,249.19,279.3,249.34,279.16,249.42Z" transform="translate(-144.68 -12.7)" fill="#150035"/><path d="M286.17,249.43l-1.43.83a.64.64,0,0,1-.57,0l-1.34-.77c-.17-.1-.19-.25-.05-.33l1.43-.83a.64.64,0,0,1,.57,0l1.34.77C286.29,249.2,286.31,249.35,286.17,249.43Z" transform="translate(-144.68 -12.7)" fill="#150035"/><path d="M282.67,251.46l-1.43.82a.61.61,0,0,1-.57,0l-1.34-.78c-.17-.1-.19-.25,0-.33l1.42-.83a.64.64,0,0,1,.57,0l1.35.78C282.8,251.22,282.82,251.37,282.67,251.46Z" transform="translate(-144.68 -12.7)" fill="#150035"/><path d="M289.48,251.35l-1.42.83a.67.67,0,0,1-.57,0l-1.35-.78c-.17-.1-.18-.25,0-.33l1.43-.83a.64.64,0,0,1,.57,0l1.34.77C289.61,251.12,289.63,251.27,289.48,251.35Z" transform="translate(-144.68 -12.7)" fill="#150035"/><path d="M286,253.38l-1.43.82a.61.61,0,0,1-.57,0l-1.34-.78c-.17-.1-.19-.24,0-.33l1.42-.82a.61.61,0,0,1,.57,0l1.35.78C286.12,253.14,286.13,253.29,286,253.38Z" transform="translate(-144.68 -12.7)" fill="#150035"/><path d="M292.8,253.27l-1.42.83a.67.67,0,0,1-.57,0l-1.35-.78c-.17-.1-.19-.25,0-.33l1.43-.83a.64.64,0,0,1,.57,0l1.34.77C292.93,253,293,253.19,292.8,253.27Z" transform="translate(-144.68 -12.7)" fill="#150035"/><path d="M289.31,255.3l-1.43.82a.61.61,0,0,1-.57,0l-1.34-.78c-.17-.1-.19-.24-.05-.33l1.43-.82a.61.61,0,0,1,.57,0l1.35.78C289.43,255.06,289.45,255.21,289.31,255.3Z" transform="translate(-144.68 -12.7)" fill="#150035"/><path d="M296.31,255.31l-1.42.82a.61.61,0,0,1-.57,0l-1.35-.78c-.17-.1-.18-.25,0-.33l1.43-.83a.64.64,0,0,1,.57,0l1.34.78C296.44,255.07,296.46,255.22,296.31,255.31Z" transform="translate(-144.68 -12.7)" fill="#150035"/><path d="M292.82,257.33l-1.43.82a.61.61,0,0,1-.57,0l-1.34-.78c-.17-.09-.19-.24,0-.33l1.42-.82a.61.61,0,0,1,.57,0l1.35.78C293,257.1,293,257.25,292.82,257.33Z" transform="translate(-144.68 -12.7)" fill="#150035"/><path d="M299.63,257.23l-1.42.82a.61.61,0,0,1-.57,0l-1.35-.78c-.17-.1-.19-.25,0-.33l1.43-.83a.64.64,0,0,1,.57,0l1.34.78C299.76,257,299.78,257.14,299.63,257.23Z" transform="translate(-144.68 -12.7)" fill="#150035"/><path d="M296.14,259.25l-1.43.83a.64.64,0,0,1-.57,0l-1.34-.78c-.17-.09-.19-.24-.05-.33l1.43-.82a.61.61,0,0,1,.57,0l1.34.78C296.26,259,296.28,259.17,296.14,259.25Z" transform="translate(-144.68 -12.7)" fill="#150035"/><path d="M303,259.15l-1.43.82a.61.61,0,0,1-.57,0l-1.34-.78c-.17-.1-.19-.24,0-.33L301,258a.63.63,0,0,1,.58,0l1.34.78C303.08,258.91,303.1,259.06,303,259.15Z" transform="translate(-144.68 -12.7)" fill="#150035"/><path d="M299.45,261.17,298,262a.64.64,0,0,1-.57,0l-1.35-.78c-.17-.09-.18-.24,0-.33l1.43-.82a.61.61,0,0,1,.57,0l1.34.78C299.58,260.94,299.6,261.09,299.45,261.17Z" transform="translate(-144.68 -12.7)" fill="#150035"/><path d="M306.46,261.18,305,262a.61.61,0,0,1-.57,0l-1.35-.78c-.17-.09-.19-.24,0-.33l1.43-.82a.61.61,0,0,1,.57,0l1.34.78C306.59,261,306.61,261.09,306.46,261.18Z" transform="translate(-144.68 -12.7)" fill="#150035"/><path d="M303,263.2l-1.43.83a.64.64,0,0,1-.57,0l-1.34-.77c-.17-.1-.19-.25-.05-.33l1.43-.83a.67.67,0,0,1,.57,0l1.34.78C303.09,263,303.11,263.12,303,263.2Z" transform="translate(-144.68 -12.7)" fill="#150035"/><path d="M309.78,263.1l-1.43.83a.64.64,0,0,1-.57,0l-1.34-.78c-.17-.09-.19-.24,0-.33l1.42-.82a.61.61,0,0,1,.57,0l1.35.78C309.91,262.87,309.93,263,309.78,263.1Z" transform="translate(-144.68 -12.7)" fill="#150035"/><path d="M306.28,265.12l-1.42.83a.64.64,0,0,1-.57,0l-1.35-.77c-.17-.1-.18-.25,0-.33l1.43-.83a.64.64,0,0,1,.57,0l1.34.77C306.41,264.89,306.43,265,306.28,265.12Z" transform="translate(-144.68 -12.7)" fill="#150035"/><path d="M313.1,265l-1.43.83a.64.64,0,0,1-.57,0l-1.34-.78c-.17-.09-.19-.24,0-.33l1.42-.82a.61.61,0,0,1,.57,0l1.35.78C313.23,264.79,313.24,264.94,313.1,265Z" transform="translate(-144.68 -12.7)" fill="#150035"/><path d="M309.6,267l-1.42.83a.67.67,0,0,1-.57,0l-1.35-.78c-.17-.1-.19-.25,0-.33l1.43-.83a.64.64,0,0,1,.57,0l1.34.77C309.73,266.81,309.75,267,309.6,267Z" transform="translate(-144.68 -12.7)" fill="#150035"/><path d="M316.61,267.05l-1.43.83a.64.64,0,0,1-.57,0l-1.34-.77c-.17-.1-.19-.25,0-.33l1.42-.83a.67.67,0,0,1,.57,0l1.35.78C316.74,266.82,316.76,267,316.61,267.05Z" transform="translate(-144.68 -12.7)" fill="#150035"/><path d="M313.11,269.08l-1.42.82a.61.61,0,0,1-.57,0l-1.35-.78c-.17-.1-.18-.25,0-.33l1.43-.83a.64.64,0,0,1,.57,0l1.34.78C313.24,268.84,313.26,269,313.11,269.08Z" transform="translate(-144.68 -12.7)" fill="#150035"/><path d="M319.93,269l-1.43.83a.64.64,0,0,1-.57,0l-1.34-.77c-.17-.1-.19-.25,0-.33l1.42-.83a.67.67,0,0,1,.57,0l1.35.78C320.06,268.74,320.07,268.89,319.93,269Z" transform="translate(-144.68 -12.7)" fill="#150035"/><path d="M316.43,271l-1.42.82a.61.61,0,0,1-.57,0l-1.35-.78c-.17-.1-.19-.25,0-.33l1.43-.83a.64.64,0,0,1,.57,0l1.34.78C316.56,270.76,316.58,270.91,316.43,271Z" transform="translate(-144.68 -12.7)" fill="#150035"/><path d="M323.25,270.89l-1.43.83a.64.64,0,0,1-.57,0l-1.34-.77c-.17-.1-.19-.25-.05-.33l1.43-.83a.64.64,0,0,1,.57,0l1.34.77C323.37,270.66,323.39,270.81,323.25,270.89Z" transform="translate(-144.68 -12.7)" fill="#150035"/><path d="M319.75,272.92l-1.43.82a.61.61,0,0,1-.57,0l-1.34-.78c-.17-.1-.19-.25,0-.33l1.42-.83a.64.64,0,0,1,.57,0l1.35.78C319.88,272.68,319.9,272.83,319.75,272.92Z" transform="translate(-144.68 -12.7)" fill="#150035"/><path d="M326.76,272.93l-1.43.82a.64.64,0,0,1-.57,0l-1.34-.78c-.17-.1-.19-.25,0-.33l1.42-.83a.64.64,0,0,1,.57,0l1.35.78C326.88,272.69,326.9,272.84,326.76,272.93Z" transform="translate(-144.68 -12.7)" fill="#150035"/><path d="M323.26,275l-1.42.82a.63.63,0,0,1-.58,0l-1.34-.78c-.17-.1-.19-.24,0-.33l1.43-.82a.61.61,0,0,1,.57,0l1.34.78C323.39,274.72,323.41,274.86,323.26,275Z" transform="translate(-144.68 -12.7)" fill="#150035"/><path d="M330.08,274.85l-1.43.82a.61.61,0,0,1-.57,0l-1.35-.78c-.16-.1-.18-.25,0-.33l1.43-.83a.64.64,0,0,1,.57,0l1.34.78C330.2,274.61,330.22,274.76,330.08,274.85Z" transform="translate(-144.68 -12.7)" fill="#150035"/><path d="M326.58,276.87l-1.43.82a.61.61,0,0,1-.57,0l-1.34-.78c-.17-.09-.19-.24,0-.33l1.42-.82a.61.61,0,0,1,.57,0l1.35.78C326.71,276.64,326.73,276.78,326.58,276.87Z" transform="translate(-144.68 -12.7)" fill="#150035"/><path d="M333.39,276.77l-1.42.82a.61.61,0,0,1-.57,0l-1.35-.78c-.17-.1-.18-.25,0-.33l1.43-.83a.64.64,0,0,1,.57,0l1.34.78C333.52,276.53,333.54,276.68,333.39,276.77Z" transform="translate(-144.68 -12.7)" fill="#150035"/><path d="M329.9,278.79l-1.43.82a.61.61,0,0,1-.57,0l-1.34-.78c-.17-.09-.19-.24,0-.33l1.42-.82a.61.61,0,0,1,.57,0l1.35.78C330,278.56,330,278.7,329.9,278.79Z" transform="translate(-144.68 -12.7)" fill="#150035"/><path d="M336.9,278.8l-1.42.82a.61.61,0,0,1-.57,0l-1.35-.78c-.16-.1-.18-.24,0-.33l1.43-.82a.61.61,0,0,1,.57,0l1.34.78C337,278.57,337.05,278.71,336.9,278.8Z" transform="translate(-144.68 -12.7)" fill="#150035"/><path d="M333.41,280.82l-1.43.83a.64.64,0,0,1-.57,0l-1.34-.77c-.17-.1-.19-.25,0-.33l1.42-.83a.67.67,0,0,1,.57,0l1.35.78C333.54,280.59,333.55,280.74,333.41,280.82Z" transform="translate(-144.68 -12.7)" fill="#150035"/><path d="M340.22,280.72l-1.42.82a.61.61,0,0,1-.57,0l-1.35-.78c-.17-.1-.18-.24,0-.33l1.43-.82a.61.61,0,0,1,.57,0l1.34.78C340.35,280.49,340.37,280.63,340.22,280.72Z" transform="translate(-144.68 -12.7)" fill="#150035"/><path d="M336.73,282.74l-1.43.83a.64.64,0,0,1-.57,0l-1.34-.77c-.17-.1-.19-.25,0-.33l1.42-.83a.67.67,0,0,1,.57,0l1.35.78C336.85,282.51,336.87,282.66,336.73,282.74Z" transform="translate(-144.68 -12.7)" fill="#150035"/><path d="M343.54,282.64l-1.42.82a.63.63,0,0,1-.58,0l-1.34-.78c-.17-.09-.19-.24,0-.33l1.43-.82a.61.61,0,0,1,.57,0l1.34.78C343.67,282.41,343.69,282.55,343.54,282.64Z" transform="translate(-144.68 -12.7)" fill="#150035"/><path d="M340.05,284.66l-1.43.83a.64.64,0,0,1-.57,0l-1.35-.77c-.16-.1-.18-.25,0-.33l1.43-.83a.67.67,0,0,1,.57,0l1.34.78C340.17,284.43,340.19,284.58,340.05,284.66Z" transform="translate(-144.68 -12.7)" fill="#150035"/><path d="M347.05,284.67l-1.42.83a.64.64,0,0,1-.57,0l-1.35-.77c-.17-.1-.19-.25,0-.33l1.43-.83a.67.67,0,0,1,.57,0l1.34.78C347.18,284.44,347.2,284.59,347.05,284.67Z" transform="translate(-144.68 -12.7)" fill="#150035"/><path d="M343.56,286.69l-1.43.83a.67.67,0,0,1-.57,0l-1.34-.78c-.17-.1-.19-.25,0-.33l1.42-.83a.64.64,0,0,1,.57,0l1.35.77C343.68,286.46,343.7,286.61,343.56,286.69Z" transform="translate(-144.68 -12.7)" fill="#150035"/><path d="M350.37,286.59l-1.43.83a.64.64,0,0,1-.57,0l-1.34-.77c-.17-.1-.19-.25,0-.33l1.43-.83a.67.67,0,0,1,.57,0l1.34.78C350.5,286.36,350.52,286.51,350.37,286.59Z" transform="translate(-144.68 -12.7)" fill="#150035"/><path d="M346.87,288.62l-1.42.82a.64.64,0,0,1-.57,0l-1.35-.78c-.16-.1-.18-.25,0-.33l1.43-.83a.64.64,0,0,1,.57,0l1.34.78C347,288.38,347,288.53,346.87,288.62Z" transform="translate(-144.68 -12.7)" fill="#150035"/><path d="M353.69,288.51l-1.43.83a.64.64,0,0,1-.57,0l-1.34-.77c-.17-.1-.19-.25,0-.33l1.42-.83a.67.67,0,0,1,.57,0l1.35.78C353.82,288.28,353.84,288.43,353.69,288.51Z" transform="translate(-144.68 -12.7)" fill="#150035"/><path d="M350.19,290.54l-1.42.82a.64.64,0,0,1-.57,0l-1.35-.78c-.17-.1-.18-.25,0-.33l1.43-.83a.64.64,0,0,1,.57,0l1.34.78C350.32,290.3,350.34,290.45,350.19,290.54Z" transform="translate(-144.68 -12.7)" fill="#150035"/><path d="M357.2,290.54l-1.43.83a.67.67,0,0,1-.57,0l-1.34-.78c-.17-.1-.19-.25,0-.33l1.42-.83a.66.66,0,0,1,.58,0l1.34.77C357.33,290.31,357.35,290.46,357.2,290.54Z" transform="translate(-144.68 -12.7)" fill="#150035"/><path d="M353.7,292.57l-1.42.82a.61.61,0,0,1-.57,0l-1.35-.78c-.16-.1-.18-.24,0-.33l1.43-.82a.61.61,0,0,1,.57,0l1.34.78C353.83,292.34,353.85,292.48,353.7,292.57Z" transform="translate(-144.68 -12.7)" fill="#150035"/><path d="M360.7,288.52l-1.43.83a.64.64,0,0,1-.57,0l-1.34-.78c-.17-.09-.19-.24-.05-.33l1.43-.82a.67.67,0,0,1,.57,0l1.35.78C360.82,288.29,360.84,288.44,360.7,288.52Z" transform="translate(-144.68 -12.7)" fill="#150035"/><path d="M364.19,286.5l-1.42.82a.61.61,0,0,1-.57,0l-1.35-.78c-.17-.1-.19-.24,0-.33l1.43-.82a.61.61,0,0,1,.57,0l1.34.78C364.32,286.27,364.34,286.41,364.19,286.5Z" transform="translate(-144.68 -12.7)" fill="#150035"/><path d="M367.69,284.47l-1.43.83a.67.67,0,0,1-.57,0l-1.34-.78c-.17-.1-.19-.25,0-.33l1.42-.83a.64.64,0,0,1,.57,0l1.35.77C367.82,284.24,367.83,284.39,367.69,284.47Z" transform="translate(-144.68 -12.7)" fill="#150035"/><path d="M371.18,282.45l-1.42.83a.64.64,0,0,1-.57,0l-1.35-.77c-.17-.1-.18-.25,0-.34l1.43-.82a.67.67,0,0,1,.57,0l1.34.78C371.31,282.22,371.33,282.37,371.18,282.45Z" transform="translate(-144.68 -12.7)" fill="#150035"/><path d="M374.68,280.43l-1.43.82a.61.61,0,0,1-.57,0l-1.34-.78c-.17-.1-.19-.24,0-.33l1.42-.82a.63.63,0,0,1,.58,0l1.34.78C374.81,280.2,374.83,280.34,374.68,280.43Z" transform="translate(-144.68 -12.7)" fill="#150035"/><path d="M360.52,292.46l-1.43.83a.67.67,0,0,1-.57,0l-1.34-.78c-.17-.1-.19-.25,0-.33l1.42-.83a.64.64,0,0,1,.57,0l1.35.77C360.65,292.23,360.66,292.38,360.52,292.46Z" transform="translate(-144.68 -12.7)" fill="#150035"/><path d="M357.29,286.64l-1.43.83a.64.64,0,0,1-.57,0l-1.34-.77c-.17-.1-.19-.25,0-.33l1.42-.83a.64.64,0,0,1,.57,0l1.35.77C357.42,286.41,357.44,286.56,357.29,286.64Z" transform="translate(-144.68 -12.7)" fill="#150035"/><path d="M364,290.44l-1.42.83a.64.64,0,0,1-.57,0l-1.35-.77c-.16-.1-.18-.25,0-.33l1.43-.83a.67.67,0,0,1,.57,0l1.34.78C364.14,290.21,364.16,290.36,364,290.44Z" transform="translate(-144.68 -12.7)" fill="#150035"/><path d="M367.51,288.42l-1.43.82a.61.61,0,0,1-.57,0l-1.34-.78c-.17-.1-.19-.24,0-.33l1.43-.82a.61.61,0,0,1,.57,0l1.34.78C367.64,288.19,367.66,288.33,367.51,288.42Z" transform="translate(-144.68 -12.7)" fill="#150035"/><path d="M371,286.39l-1.43.83a.67.67,0,0,1-.57,0l-1.34-.78c-.17-.1-.19-.25,0-.33l1.42-.83a.64.64,0,0,1,.57,0l1.35.77C371.13,286.16,371.15,286.31,371,286.39Z" transform="translate(-144.68 -12.7)" fill="#150035"/><path d="M371.36,278.51l-1.42.82a.61.61,0,0,1-.57,0l-1.35-.78c-.17-.1-.19-.24,0-.33l1.43-.82a.61.61,0,0,1,.57,0l1.34.78C371.49,278.28,371.51,278.42,371.36,278.51Z" transform="translate(-144.68 -12.7)" fill="#150035"/><path d="M374.5,284.37l-1.42.83a.64.64,0,0,1-.57,0l-1.35-.77c-.17-.1-.19-.25,0-.33l1.43-.83a.67.67,0,0,1,.57,0l1.34.78C374.63,284.14,374.65,284.29,374.5,284.37Z" transform="translate(-144.68 -12.7)" fill="#150035"/><path d="M205.38,290l-1.43.83a.67.67,0,0,1-.57,0L202,290c-.16-.1-.18-.25,0-.33l1.43-.83a.64.64,0,0,1,.57,0l1.34.77C205.5,289.77,205.52,289.92,205.38,290Z" transform="translate(-144.68 -12.7)" fill="#150035"/><path d="M208.89,292l-1.43.82a.61.61,0,0,1-.57,0l-1.34-.78c-.17-.1-.19-.25,0-.33l1.42-.83a.64.64,0,0,1,.57,0l1.35.78C209,291.8,209,292,208.89,292Z" transform="translate(-144.68 -12.7)" fill="#150035"/><path d="M205.39,294.06l-1.43.82a.61.61,0,0,1-.57,0l-1.34-.78c-.17-.09-.19-.24,0-.33l1.43-.82a.61.61,0,0,1,.57,0l1.34.78C205.52,293.83,205.54,294,205.39,294.06Z" transform="translate(-144.68 -12.7)" fill="#150035"/><path d="M212.2,294l-1.42.82a.61.61,0,0,1-.57,0l-1.35-.78c-.16-.1-.18-.25,0-.33l1.43-.83a.64.64,0,0,1,.57,0l1.34.78C212.33,293.72,212.35,293.87,212.2,294Z" transform="translate(-144.68 -12.7)" fill="#150035"/><path d="M208.71,296l-1.43.82a.61.61,0,0,1-.57,0l-1.34-.78c-.17-.09-.19-.24,0-.33l1.42-.82a.61.61,0,0,1,.57,0l1.35.78C208.84,295.75,208.86,295.9,208.71,296Z" transform="translate(-144.68 -12.7)" fill="#150035"/><path d="M215.52,295.88l-1.42.82a.61.61,0,0,1-.57,0l-1.35-.78c-.17-.1-.18-.25,0-.33l1.43-.82a.61.61,0,0,1,.57,0l1.34.78C215.65,295.64,215.67,295.79,215.52,295.88Z" transform="translate(-144.68 -12.7)" fill="#150035"/><path d="M212,297.9l-1.43.83a.64.64,0,0,1-.57,0l-1.34-.78c-.17-.09-.19-.24,0-.33l1.42-.82a.61.61,0,0,1,.57,0l1.35.78C212.15,297.67,212.17,297.82,212,297.9Z" transform="translate(-144.68 -12.7)" fill="#150035"/><path d="M219,297.91l-1.42.82a.61.61,0,0,1-.57,0l-1.35-.78c-.16-.1-.18-.24,0-.33l1.43-.82a.61.61,0,0,1,.57,0l1.34.78C219.16,297.68,219.18,297.82,219,297.91Z" transform="translate(-144.68 -12.7)" fill="#150035"/><path d="M215.54,299.93l-1.43.83a.64.64,0,0,1-.57,0L212.2,300c-.17-.1-.19-.25,0-.33l1.42-.83a.67.67,0,0,1,.57,0l1.35.78C215.67,299.7,215.68,299.85,215.54,299.93Z" transform="translate(-144.68 -12.7)" fill="#150035"/><path d="M222.35,299.83l-1.42.82a.61.61,0,0,1-.57,0l-1.35-.78c-.17-.09-.19-.24,0-.33l1.43-.82a.61.61,0,0,1,.57,0l1.34.78C222.48,299.6,222.5,299.74,222.35,299.83Z" transform="translate(-144.68 -12.7)" fill="#150035"/><path d="M218.86,301.85l-1.43.83a.64.64,0,0,1-.57,0l-1.34-.77c-.17-.1-.19-.25,0-.33l1.42-.83a.67.67,0,0,1,.57,0l1.35.78C219,301.62,219,301.77,218.86,301.85Z" transform="translate(-144.68 -12.7)" fill="#150035"/><path d="M225.67,301.75l-1.43.83a.64.64,0,0,1-.57,0l-1.34-.78c-.17-.09-.19-.24,0-.33l1.43-.82a.61.61,0,0,1,.57,0l1.34.78C225.8,301.52,225.82,301.67,225.67,301.75Z" transform="translate(-144.68 -12.7)" fill="#150035"/><path d="M222.17,303.77l-1.42.83a.64.64,0,0,1-.57,0l-1.35-.77c-.16-.1-.18-.25,0-.33l1.43-.83a.64.64,0,0,1,.57,0l1.34.77C222.3,303.54,222.32,303.69,222.17,303.77Z" transform="translate(-144.68 -12.7)" fill="#150035"/><path d="M229.18,303.78l-1.42.83a.64.64,0,0,1-.57,0l-1.35-.77c-.17-.1-.19-.25,0-.33l1.43-.83a.67.67,0,0,1,.57,0l1.34.78C229.31,303.55,229.33,303.7,229.18,303.78Z" transform="translate(-144.68 -12.7)" fill="#150035"/><path d="M225.69,305.81l-1.43.82a.64.64,0,0,1-.57,0l-1.34-.78c-.17-.1-.19-.25,0-.33l1.43-.83a.64.64,0,0,1,.57,0l1.35.78C225.81,305.57,225.83,305.72,225.69,305.81Z" transform="translate(-144.68 -12.7)" fill="#150035"/><path d="M232.5,305.7l-1.43.83a.64.64,0,0,1-.57,0l-1.34-.77c-.17-.1-.19-.25,0-.33l1.43-.83a.67.67,0,0,1,.57,0l1.34.78C232.63,305.47,232.65,305.62,232.5,305.7Z" transform="translate(-144.68 -12.7)" fill="#150035"/><path d="M229,307.73l-1.42.82a.61.61,0,0,1-.57,0l-1.35-.78c-.16-.1-.18-.25,0-.33l1.43-.83a.64.64,0,0,1,.57,0l1.34.78C229.13,307.49,229.15,307.64,229,307.73Z" transform="translate(-144.68 -12.7)" fill="#150035"/><path d="M235.82,307.62l-1.43.83a.64.64,0,0,1-.57,0l-1.34-.77c-.17-.1-.19-.25,0-.33l1.42-.83a.67.67,0,0,1,.57,0l1.35.78C236,307.39,236,307.54,235.82,307.62Z" transform="translate(-144.68 -12.7)" fill="#150035"/><path d="M232.32,309.65l-1.42.82a.61.61,0,0,1-.57,0l-1.35-.78c-.17-.1-.19-.25,0-.33l1.43-.83a.64.64,0,0,1,.57,0l1.34.78C232.45,309.41,232.47,309.56,232.32,309.65Z" transform="translate(-144.68 -12.7)" fill="#150035"/><path d="M239.33,309.66l-1.43.82a.67.67,0,0,1-.57,0l-1.34-.78c-.17-.1-.19-.25,0-.33l1.42-.83a.64.64,0,0,1,.57,0l1.35.78C239.46,309.42,239.48,309.57,239.33,309.66Z" transform="translate(-144.68 -12.7)" fill="#150035"/><path d="M235.83,311.68l-1.42.82a.61.61,0,0,1-.57,0l-1.35-.78c-.17-.1-.18-.24,0-.33l1.43-.82a.61.61,0,0,1,.57,0l1.34.78C236,311.45,236,311.59,235.83,311.68Z" transform="translate(-144.68 -12.7)" fill="#150035"/><path d="M242.65,311.58l-1.43.82a.64.64,0,0,1-.57,0l-1.34-.78c-.17-.1-.19-.25,0-.33l1.42-.83a.64.64,0,0,1,.57,0l1.35.78C242.78,311.34,242.79,311.49,242.65,311.58Z" transform="translate(-144.68 -12.7)" fill="#150035"/><path d="M239.15,313.6l-1.42.82a.61.61,0,0,1-.57,0l-1.35-.78c-.17-.1-.19-.24,0-.33l1.43-.82a.61.61,0,0,1,.57,0l1.34.78C239.28,313.37,239.3,313.51,239.15,313.6Z" transform="translate(-144.68 -12.7)" fill="#150035"/><path d="M246,313.5l-1.43.82a.61.61,0,0,1-.57,0l-1.34-.78c-.17-.1-.19-.25,0-.33l1.43-.83a.64.64,0,0,1,.57,0l1.35.78C246.09,313.26,246.11,313.41,246,313.5Z" transform="translate(-144.68 -12.7)" fill="#150035"/><path d="M242.47,315.52l-1.43.82a.61.61,0,0,1-.57,0l-1.34-.78c-.17-.09-.19-.24,0-.33l1.42-.82a.63.63,0,0,1,.58,0l1.34.78C242.6,315.29,242.62,315.43,242.47,315.52Z" transform="translate(-144.68 -12.7)" fill="#150035"/><path d="M249.48,315.53l-1.43.82a.61.61,0,0,1-.57,0l-1.34-.78c-.17-.1-.19-.24,0-.33l1.42-.82a.61.61,0,0,1,.57,0l1.35.78C249.61,315.3,249.62,315.44,249.48,315.53Z" transform="translate(-144.68 -12.7)" fill="#150035"/><path d="M246,317.55l-1.42.83a.64.64,0,0,1-.57,0l-1.35-.77c-.17-.1-.19-.25,0-.33l1.43-.83a.67.67,0,0,1,.57,0l1.34.78C246.11,317.32,246.13,317.47,246,317.55Z" transform="translate(-144.68 -12.7)" fill="#150035"/><path d="M252.8,317.45l-1.43.82a.61.61,0,0,1-.57,0l-1.34-.78c-.17-.1-.19-.24-.05-.33l1.43-.82a.61.61,0,0,1,.57,0l1.34.78C252.92,317.22,252.94,317.36,252.8,317.45Z" transform="translate(-144.68 -12.7)" fill="#150035"/><path d="M249.3,319.47l-1.43.83a.64.64,0,0,1-.57,0L246,319.5c-.17-.1-.19-.25,0-.33l1.42-.83a.67.67,0,0,1,.57,0l1.35.78C249.43,319.24,249.45,319.39,249.3,319.47Z" transform="translate(-144.68 -12.7)" fill="#150035"/><path d="M256.11,319.37l-1.42.82a.61.61,0,0,1-.57,0l-1.35-.78c-.17-.1-.18-.24,0-.33l1.43-.82a.61.61,0,0,1,.57,0l1.34.78C256.24,319.14,256.26,319.28,256.11,319.37Z" transform="translate(-144.68 -12.7)" fill="#150035"/><path d="M252.62,321.39l-1.43.83a.64.64,0,0,1-.57,0l-1.34-.77c-.17-.1-.19-.25,0-.33l1.42-.83a.67.67,0,0,1,.57,0l1.35.78C252.75,321.16,252.76,321.31,252.62,321.39Z" transform="translate(-144.68 -12.7)" fill="#150035"/><path d="M259.63,321.4l-1.43.83a.64.64,0,0,1-.57,0l-1.34-.78c-.17-.09-.19-.24-.05-.33l1.43-.82a.64.64,0,0,1,.57,0l1.34.78C259.75,321.17,259.77,321.32,259.63,321.4Z" transform="translate(-144.68 -12.7)" fill="#150035"/><path d="M256.13,323.42l-1.43.83a.67.67,0,0,1-.57,0l-1.34-.78c-.17-.1-.19-.25,0-.33l1.42-.83a.64.64,0,0,1,.57,0l1.35.77C256.26,323.19,256.28,323.34,256.13,323.42Z" transform="translate(-144.68 -12.7)" fill="#150035"/><path d="M263.12,319.38l-1.42.82a.61.61,0,0,1-.57,0l-1.35-.78c-.17-.1-.19-.24,0-.33l1.43-.82a.61.61,0,0,1,.57,0l1.34.78C263.25,319.15,263.27,319.29,263.12,319.38Z" transform="translate(-144.68 -12.7)" fill="#150035"/><path d="M266.62,317.35l-1.43.83a.67.67,0,0,1-.57,0l-1.34-.78c-.17-.1-.19-.25,0-.33l1.42-.83a.64.64,0,0,1,.57,0l1.35.77C266.75,317.12,266.76,317.27,266.62,317.35Z" transform="translate(-144.68 -12.7)" fill="#150035"/><path d="M270.11,315.33l-1.42.83a.64.64,0,0,1-.57,0l-1.35-.78c-.17-.09-.18-.24,0-.33l1.43-.82a.64.64,0,0,1,.57,0l1.34.78C270.24,315.1,270.26,315.25,270.11,315.33Z" transform="translate(-144.68 -12.7)" fill="#150035"/><path d="M273.61,313.31l-1.43.82a.61.61,0,0,1-.57,0l-1.34-.78c-.17-.1-.19-.24,0-.33l1.42-.82a.61.61,0,0,1,.57,0l1.35.78C273.74,313.08,273.76,313.22,273.61,313.31Z" transform="translate(-144.68 -12.7)" fill="#150035"/><path d="M277.11,311.28l-1.43.83a.67.67,0,0,1-.57,0l-1.35-.78c-.16-.1-.18-.25,0-.33l1.43-.83a.64.64,0,0,1,.57,0l1.34.77C277.23,311.05,277.25,311.2,277.11,311.28Z" transform="translate(-144.68 -12.7)" fill="#150035"/><path d="M280.6,309.26l-1.42.83a.64.64,0,0,1-.57,0l-1.35-.78c-.17-.09-.19-.24,0-.33l1.43-.82a.67.67,0,0,1,.57,0l1.34.78C280.73,309,280.75,309.18,280.6,309.26Z" transform="translate(-144.68 -12.7)" fill="#150035"/><path d="M284.1,307.24l-1.43.82a.61.61,0,0,1-.57,0l-1.34-.78c-.17-.1-.19-.24,0-.33l1.42-.82a.61.61,0,0,1,.57,0l1.35.78C284.23,307,284.24,307.15,284.1,307.24Z" transform="translate(-144.68 -12.7)" fill="#150035"/><path d="M305.07,295.1l-1.42.82a.61.61,0,0,1-.57,0l-1.35-.78c-.17-.1-.18-.24,0-.33l1.43-.82a.61.61,0,0,1,.57,0l1.34.78C305.2,294.87,305.22,295,305.07,295.1Z" transform="translate(-144.68 -12.7)" fill="#150035"/><path d="M308.57,293.07l-1.43.83a.67.67,0,0,1-.57,0l-1.34-.78c-.17-.1-.19-.25,0-.33l1.42-.83a.64.64,0,0,1,.57,0l1.35.77C308.7,292.84,308.72,293,308.57,293.07Z" transform="translate(-144.68 -12.7)" fill="#150035"/><path d="M312.07,291.05l-1.43.83a.64.64,0,0,1-.57,0l-1.35-.77c-.16-.1-.18-.25,0-.33l1.43-.83a.67.67,0,0,1,.57,0l1.34.78C312.19,290.82,312.21,291,312.07,291.05Z" transform="translate(-144.68 -12.7)" fill="#150035"/><path d="M262.94,323.32l-1.42.83a.64.64,0,0,1-.57,0l-1.35-.77c-.17-.1-.18-.25,0-.33l1.43-.83a.67.67,0,0,1,.57,0l1.34.78C263.07,323.09,263.09,323.24,262.94,323.32Z" transform="translate(-144.68 -12.7)" fill="#150035"/><path d="M266.44,321.3l-1.43.82a.61.61,0,0,1-.57,0l-1.34-.78c-.17-.1-.19-.24,0-.33l1.42-.82a.61.61,0,0,1,.57,0l1.35.78C266.57,321.07,266.59,321.21,266.44,321.3Z" transform="translate(-144.68 -12.7)" fill="#150035"/><path d="M269.94,319.27l-1.43.83a.67.67,0,0,1-.57,0l-1.34-.78c-.17-.1-.19-.25-.05-.33l1.43-.83a.64.64,0,0,1,.57,0l1.34.77C270.06,319,270.08,319.19,269.94,319.27Z" transform="translate(-144.68 -12.7)" fill="#150035"/><path d="M273.43,317.25l-1.42.83a.64.64,0,0,1-.57,0l-1.35-.77c-.17-.1-.19-.25,0-.33l1.43-.83a.67.67,0,0,1,.57,0l1.34.78C273.56,317,273.58,317.17,273.43,317.25Z" transform="translate(-144.68 -12.7)" fill="#150035"/><path d="M315.55,289l-1.43.82a.61.61,0,0,1-.57,0l-1.34-.78c-.17-.1-.19-.24,0-.33l1.43-.82a.61.61,0,0,1,.57,0l1.35.78C315.67,288.8,315.69,289,315.55,289Z" transform="translate(-144.68 -12.7)" fill="#150035"/><path d="M263.26,311.36l-1.43.82a.64.64,0,0,1-.57,0l-1.34-.78c-.17-.1-.19-.25,0-.33l1.42-.83a.64.64,0,0,1,.57,0l1.35.78C263.39,311.12,263.41,311.27,263.26,311.36Z" transform="translate(-144.68 -12.7)" fill="#150035"/><path d="M266.76,309.33l-1.43.83a.64.64,0,0,1-.57,0l-1.35-.77c-.16-.1-.18-.25,0-.33l1.43-.83a.67.67,0,0,1,.57,0l1.34.78C266.88,309.1,266.9,309.25,266.76,309.33Z" transform="translate(-144.68 -12.7)" fill="#150035"/><path d="M273.75,305.29l-1.43.82a.61.61,0,0,1-.57,0l-1.34-.78c-.17-.1-.19-.25,0-.33l1.42-.83a.64.64,0,0,1,.57,0l1.35.78C273.88,305.05,273.89,305.2,273.75,305.29Z" transform="translate(-144.68 -12.7)" fill="#150035"/><path d="M277.24,303.26l-1.42.83a.64.64,0,0,1-.57,0l-1.35-.77c-.17-.1-.18-.25,0-.33l1.43-.83a.67.67,0,0,1,.57,0l1.34.78C277.37,303,277.39,303.18,277.24,303.26Z" transform="translate(-144.68 -12.7)" fill="#150035"/><path d="M280.74,301.24l-1.43.82a.61.61,0,0,1-.57,0l-1.34-.78c-.17-.09-.19-.24,0-.33l1.42-.82a.61.61,0,0,1,.57,0l1.35.78C280.87,301,280.89,301.15,280.74,301.24Z" transform="translate(-144.68 -12.7)" fill="#150035"/><path d="M284.24,299.22l-1.43.82a.61.61,0,0,1-.57,0l-1.35-.78c-.16-.1-.18-.25,0-.33l1.43-.83a.64.64,0,0,1,.57,0l1.34.78C284.36,299,284.38,299.13,284.24,299.22Z" transform="translate(-144.68 -12.7)" fill="#150035"/><path d="M287.73,297.19l-1.42.83a.66.66,0,0,1-.58,0l-1.34-.77c-.17-.1-.19-.25,0-.33l1.43-.83a.67.67,0,0,1,.57,0l1.34.78C287.86,297,287.88,297.11,287.73,297.19Z" transform="translate(-144.68 -12.7)" fill="#150035"/><path d="M291.23,295.17l-1.43.82a.61.61,0,0,1-.57,0l-1.34-.78c-.17-.09-.19-.24,0-.33l1.42-.82a.61.61,0,0,1,.57,0l1.35.78C291.36,294.94,291.37,295.08,291.23,295.17Z" transform="translate(-144.68 -12.7)" fill="#150035"/><path d="M294.72,293.15l-1.42.82a.61.61,0,0,1-.57,0l-1.35-.78c-.17-.1-.18-.25,0-.33l1.43-.83a.64.64,0,0,1,.57,0l1.34.78C294.85,292.91,294.87,293.06,294.72,293.15Z" transform="translate(-144.68 -12.7)" fill="#150035"/><path d="M298.22,291.12l-1.43.83a.64.64,0,0,1-.57,0l-1.34-.77c-.17-.1-.19-.25,0-.33l1.42-.83a.67.67,0,0,1,.57,0l1.35.78C298.35,290.89,298.37,291,298.22,291.12Z" transform="translate(-144.68 -12.7)" fill="#150035"/><path d="M301.72,289.1l-1.43.82a.61.61,0,0,1-.57,0l-1.35-.78c-.16-.09-.18-.24,0-.33l1.43-.82a.61.61,0,0,1,.57,0l1.34.78C301.84,288.87,301.86,289,301.72,289.1Z" transform="translate(-144.68 -12.7)" fill="#150035"/><path d="M305.21,287.08l-1.42.82a.63.63,0,0,1-.58,0l-1.34-.78c-.17-.1-.19-.25,0-.33l1.43-.83a.64.64,0,0,1,.57,0l1.34.78C305.34,286.84,305.36,287,305.21,287.08Z" transform="translate(-144.68 -12.7)" fill="#150035"/><path d="M312.2,283l-1.42.82a.61.61,0,0,1-.57,0l-1.35-.78c-.17-.09-.18-.24,0-.33l1.43-.82a.61.61,0,0,1,.57,0l1.34.78C312.33,282.8,312.35,282.94,312.2,283Z" transform="translate(-144.68 -12.7)" fill="#150035"/><path d="M263.08,315.3l-1.42.82a.61.61,0,0,1-.57,0l-1.35-.78c-.17-.09-.19-.24,0-.33l1.43-.82a.61.61,0,0,1,.57,0L263,315C263.21,315.07,263.23,315.21,263.08,315.3Z" transform="translate(-144.68 -12.7)" fill="#150035"/><path d="M266.58,313.28l-1.43.82a.61.61,0,0,1-.57,0l-1.34-.78c-.17-.1-.19-.25,0-.33l1.42-.83a.64.64,0,0,1,.57,0l1.35.78C266.71,313,266.72,313.19,266.58,313.28Z" transform="translate(-144.68 -12.7)" fill="#150035"/><path d="M270.07,311.25l-1.42.83a.64.64,0,0,1-.57,0l-1.35-.77c-.17-.1-.18-.25,0-.33l1.43-.83a.67.67,0,0,1,.57,0l1.34.78C270.2,311,270.22,311.17,270.07,311.25Z" transform="translate(-144.68 -12.7)" fill="#150035"/><path d="M273.57,309.23l-1.43.82a.61.61,0,0,1-.57,0l-1.34-.78c-.17-.09-.19-.24,0-.33l1.42-.82a.61.61,0,0,1,.57,0l1.35.78C273.7,309,273.72,309.14,273.57,309.23Z" transform="translate(-144.68 -12.7)" fill="#150035"/><path d="M277.07,307.21l-1.43.82a.61.61,0,0,1-.57,0l-1.35-.78c-.16-.1-.18-.25,0-.33l1.43-.83a.64.64,0,0,1,.57,0l1.34.78C277.19,307,277.21,307.12,277.07,307.21Z" transform="translate(-144.68 -12.7)" fill="#150035"/><path d="M280.56,305.18l-1.42.83a.64.64,0,0,1-.57,0l-1.35-.77c-.17-.1-.19-.25,0-.33l1.43-.83a.67.67,0,0,1,.57,0l1.34.78C280.69,305,280.71,305.1,280.56,305.18Z" transform="translate(-144.68 -12.7)" fill="#150035"/><path d="M284.06,303.16l-1.43.82a.61.61,0,0,1-.57,0l-1.34-.78c-.17-.09-.19-.24,0-.33l1.42-.82a.61.61,0,0,1,.57,0l1.35.78C284.19,302.93,284.2,303.07,284.06,303.16Z" transform="translate(-144.68 -12.7)" fill="#150035"/><path d="M287.55,301.14l-1.42.82a.61.61,0,0,1-.57,0l-1.35-.78c-.17-.1-.18-.25,0-.33l1.43-.83a.64.64,0,0,1,.57,0l1.34.78C287.68,300.9,287.7,301.05,287.55,301.14Z" transform="translate(-144.68 -12.7)" fill="#150035"/><path d="M287.82,293.2l-1.43.82a.61.61,0,0,1-.57,0l-1.34-.78c-.17-.1-.19-.24,0-.33l1.42-.82a.63.63,0,0,1,.58,0l1.34.78C288,293,288,293.11,287.82,293.2Z" transform="translate(-144.68 -12.7)" fill="#150035"/><path d="M291.05,299.11l-1.43.83a.64.64,0,0,1-.57,0l-1.34-.77c-.17-.1-.19-.25,0-.33l1.42-.83a.67.67,0,0,1,.57,0l1.35.78C291.18,298.88,291.2,299,291.05,299.11Z" transform="translate(-144.68 -12.7)" fill="#150035"/><path d="M291.41,291.23l-1.43.82a.64.64,0,0,1-.57,0l-1.35-.78c-.16-.1-.18-.25,0-.33l1.43-.83a.64.64,0,0,1,.57,0l1.34.78C291.53,291,291.55,291.14,291.41,291.23Z" transform="translate(-144.68 -12.7)" fill="#150035"/><path d="M294.55,297.09l-1.43.82a.61.61,0,0,1-.57,0l-1.35-.78c-.16-.09-.18-.24,0-.33l1.43-.82a.61.61,0,0,1,.57,0l1.34.78C294.67,296.86,294.69,297,294.55,297.09Z" transform="translate(-144.68 -12.7)" fill="#150035"/><path d="M298,295.07l-1.42.82a.61.61,0,0,1-.57,0l-1.35-.78c-.17-.1-.19-.25,0-.33l1.43-.83a.64.64,0,0,1,.57,0l1.34.78C298.17,294.83,298.19,295,298,295.07Z" transform="translate(-144.68 -12.7)" fill="#150035"/><path d="M301.54,293l-1.43.83a.64.64,0,0,1-.57,0l-1.34-.77c-.17-.1-.19-.25,0-.33l1.42-.83a.67.67,0,0,1,.57,0l1.35.78C301.67,292.81,301.68,293,301.54,293Z" transform="translate(-144.68 -12.7)" fill="#150035"/><path d="M305,291l-1.42.82a.61.61,0,0,1-.57,0l-1.35-.78c-.17-.09-.18-.24,0-.33l1.43-.82a.61.61,0,0,1,.57,0l1.34.78C305.16,290.79,305.18,290.94,305,291Z" transform="translate(-144.68 -12.7)" fill="#150035"/><path d="M308.53,289l-1.43.82a.61.61,0,0,1-.57,0l-1.34-.78c-.17-.1-.19-.25,0-.33l1.42-.83a.64.64,0,0,1,.57,0l1.35.78C308.66,288.76,308.68,288.91,308.53,289Z" transform="translate(-144.68 -12.7)" fill="#150035"/><path d="M312,287l-1.43.83a.64.64,0,0,1-.57,0l-1.35-.77c-.16-.1-.18-.25,0-.33l1.43-.83a.67.67,0,0,1,.57,0l1.34.78C312.15,286.74,312.17,286.89,312,287Z" transform="translate(-144.68 -12.7)" fill="#150035"/><path d="M248.28,207.56l48.06,27.94a.42.42,0,0,1,0,.72l-33.07,19.12a.4.4,0,0,1-.42,0L214.79,227.4a.42.42,0,0,1,0-.72l33.07-19.13A.42.42,0,0,1,248.28,207.56Z" transform="translate(-144.68 -12.7)" fill="#ffb000"/><path d="M263.06,256.23a1.23,1.23,0,0,1-.62-.17l-48.06-27.94a1.25,1.25,0,0,1,0-2.16l33.07-19.13a1.22,1.22,0,0,1,1.24,0l48.06,27.94a1.24,1.24,0,0,1,.62,1.08,1.26,1.26,0,0,1-.62,1.08l-33.07,19.12A1.23,1.23,0,0,1,263.06,256.23ZM215.83,227l47.23,27.46,32.24-18.64L248.07,208.4Z" transform="translate(-144.68 -12.7)" fill="#150035"/><path d="M247.87,207.6,263,255.12a.14.14,0,0,1-.2.17l-48.62-28.13a.13.13,0,0,1,0-.24l33.54-19.4A.14.14,0,0,1,247.87,207.6Z" transform="translate(-144.68 -12.7)" fill="#150035"/><path d="M262.82,256.14a1,1,0,0,1-.48-.13l-48.63-28.13a1,1,0,0,1-.48-.84,1,1,0,0,1,.48-.84l33.54-19.4a1,1,0,0,1,.84-.06.94.94,0,0,1,.57.6h0l15.08,47.52a1,1,0,0,1-.31,1A.94.94,0,0,1,262.82,256.14ZM215.58,227l46,26.63-14.28-45Z" transform="translate(-144.68 -12.7)" fill="#150035"/><path d="M290.15,130.63s.46-2.52,5.43-5.45l3,.59Z" transform="translate(-144.68 -12.7)" fill="#150035"/><path d="M289,132.25l.31-1.77c.06-.29.68-3,5.82-6l.28-.17,5.46,1.08Zm6.71-6.19a18.12,18.12,0,0,0-2.62,1.9l3.12-1.8Z" transform="translate(-144.68 -12.7)" fill="#150035"/><path d="M291.78,148.22c1.07,2,5.08,8.1,13.93,5.44l.12,0,3.43-1.8s-6.35,2.7-11.82-5.19a.56.56,0,0,0-.57-.23l-4.71,1A.55.55,0,0,0,291.78,148.22Z" transform="translate(-144.68 -12.7)" fill="#ffb000"/><path d="M301.49,155.16a11.83,11.83,0,0,1-10.44-6.55h0a1.38,1.38,0,0,1,0-1.22,1.34,1.34,0,0,1,1-.77l4.71-1a1.37,1.37,0,0,1,1.43.57c5,7.2,10.59,5,10.82,4.89l.71,1.51-3.44,1.8a1.45,1.45,0,0,1-.25.1A15.61,15.61,0,0,1,301.49,155.16Zm-8.79-7c1.36,2.4,5,6.87,12.44,4.79-2.42-.36-5.48-1.74-8.28-5.71Z" transform="translate(-144.68 -12.7)" fill="#150035"/><path d="M342,123.84c-8.23,8-25.61,18.15-33.49,21.66s-8.82,8.43-8.82,8.43l-21.54-2.81V140.47a69.26,69.26,0,0,1,12.67-10.07c6.66-3.86,15.41-9.13,20.31-13.16,3.91-3.22,12.68-12.65,16.11-16.37a12.14,12.14,0,0,1,6.28-3.75c3.37-.74,7.89-.13,11.59,6C352.56,115.63,342,123.84,342,123.84Z" transform="translate(-144.68 -12.7)" fill="#fff"/><path d="M300.3,154.85l-23-3V140.13l.24-.24a68.9,68.9,0,0,1,12.84-10.21c9.83-5.7,16.43-10,20.21-13.09s12.48-12.44,16-16.29a12.86,12.86,0,0,1,6.71-4c3.48-.76,8.47-.27,12.48,6.4,7.55,12.55-2.51,21.13-3.27,21.75-8.59,8.35-26.23,18.47-33.7,21.8s-8.34,7.78-8.35,7.82Zm-21.37-4.46L299.05,153c.6-1.6,2.64-5.41,9.07-8.27,7.38-3.29,24.81-13.29,33.25-21.5l.07-.06c.41-.32,9.93-7.93,2.91-19.61-2.82-4.68-6.42-6.58-10.7-5.64a11.37,11.37,0,0,0-5.85,3.5c-3.56,3.87-12.27,13.22-16.19,16.45s-10.52,7.5-20.42,13.24a68.24,68.24,0,0,0-12.26,9.69Z" transform="translate(-144.68 -12.7)" fill="#150035"/><path d="M285.93,138.83a12.17,12.17,0,0,0-10.39,2.34c-3.74,2.69-5.49,6.67-8.06,11s-4.2,7.37-4.2,7.37a2.85,2.85,0,0,0-1.75,1.88,4.31,4.31,0,0,1-2.22-2c-.47-1.29.35-5.39.35-5.39s1.17-4.79-.7-6.08-3.51-.7-4.79,2.22c-1.13,2.58-1.45,7.12-1.51,7.91,0,0,0,0-.07,0-.93-2.5-2.21-4.29-4.61-4.17s-2.8,1.4-2.68,3.86,4.39,10.09,4.39,10.09,5.14,7.14,7.71,8.08,9.23,2.35,9.7,2.42c0,0,0,0,0,0l-2.9,2.8c-.37.37-.41,1.25-.93,1.28-2.26.14-9.08-.05-10.51.81-1.75,1-4,2.22-2.69,6.2a72.75,72.75,0,0,0-9.31,4c-1.65.83-1.72,2.31-.32,4.65,0,0,2,1.41,8.64,0s15.76-4.09,15.76-4.09l6.13-4a173.87,173.87,0,0,0,16.35-7.37s3.29-1.76,7.26-11l.59-1.29s1.72-2.32,3.47-8.76,1.29-15-2.33-19S289.43,139.53,285.93,138.83Z" transform="translate(-144.68 -12.7)" fill="#fff"/><path d="M243.9,199.62c-2.72,0-3.77-.67-3.93-.78l-.14-.1-.09-.15c-1-1.65-1.3-2.91-1-4a3,3,0,0,1,1.65-1.84,81.34,81.34,0,0,1,8.67-3.8c-.91-3.88,1.49-5.31,3.1-6.28l.17-.1c1.16-.7,4.34-.8,8.38-.86.92,0,1.73,0,2.31-.06,0-.06.06-.13.08-.19a2.46,2.46,0,0,1,.53-.87l1.79-1.73c-2.31-.5-6.45-1.46-8.32-2.14-2.73-1-7.55-7.62-8.09-8.37s-4.43-8-4.55-10.54a5.94,5.94,0,0,1,.49-3.27,3.33,3.33,0,0,1,3-1.46,4.52,4.52,0,0,1,4.17,2.18,21.36,21.36,0,0,1,1.3-5.43c.81-1.85,1.79-2.92,3-3.26a3.58,3.58,0,0,1,3,.68c2.27,1.57,1.17,6.42,1,7-.31,1.57-.64,4.17-.37,4.9a2.54,2.54,0,0,0,1.05,1.13,3.56,3.56,0,0,1,1.55-1.39c.46-.84,2-3.57,4.08-7.13.47-.8.92-1.59,1.35-2.36,1.92-3.39,3.74-6.6,6.93-8.9a13,13,0,0,1,11-2.48l-.33,1.64a11.31,11.31,0,0,0-9.74,2.2c-2.9,2.08-4.55,5-6.46,8.37-.44.77-.89,1.57-1.37,2.38-2.53,4.26-4.17,7.31-4.18,7.34l-.16.29-.31.1a2,2,0,0,0-1.21,1.3l-.25.9-.86-.34a5,5,0,0,1-2.69-2.48c-.52-1.43.17-5.11.31-5.83.44-1.8.61-4.58-.35-5.24a2,2,0,0,0-1.64-.45c-.67.19-1.34,1-1.92,2.33a25.45,25.45,0,0,0-1.43,7.57l-.05.67-.7.19-.66.09-.27-.65c-1-2.63-2.08-3.71-3.8-3.63-1.14.05-1.47.37-1.63.64a4.85,4.85,0,0,0-.26,2.35c.09,1.85,3.12,7.65,4.29,9.73,1.88,2.6,5.57,7.08,7.26,7.7,2.42.88,9.14,2.31,9.55,2.38l.49.08.36,1-.39.4-2.9,2.81a3.51,3.51,0,0,0-.15.32c-.17.4-.49,1.14-1.31,1.19-.6,0-1.53.05-2.59.07-2.33,0-6.68.1-7.54.62l-.17.11c-1.72,1-3.19,1.91-2.16,5.13l.26.79-.79.26a71.81,71.81,0,0,0-9.19,3.95c-.67.34-.78.7-.81.82-.11.38-.07,1.11.71,2.47.5.21,2.66.91,7.87-.19,6.15-1.3,14.51-3.73,15.58-4l6.18-4A171.14,171.14,0,0,0,286.93,182s3.15-1.87,6.9-10.6l.68-1.46s1.67-2.33,3.34-8.48c1.61-5.9,1.4-14.28-2.15-18.18l1.23-1.12c3.95,4.34,4.24,13.41,2.52,19.74-1.62,5.94-3.22,8.48-3.55,9l-.55,1.22c-4,9.39-7.49,11.31-7.63,11.39a172.65,172.65,0,0,1-16.36,7.38l-6.27,4c-.09,0-9.22,2.71-15.83,4.11A25.94,25.94,0,0,1,243.9,199.62Z" transform="translate(-144.68 -12.7)" fill="#150035"/><path d="M284.12,181.68H284c-.13,0-3.26-.15-3.52-6-.22-4.86,3.83-9.15,4.9-10.19a11.63,11.63,0,0,1,1.23-3.85c.87-1.74.57-6.59.39-8.32l1.65-.18c.07.69.69,6.76-.55,9.24a9.14,9.14,0,0,0-1.08,3.5v.36l-.26.25c-.05,0-4.83,4.43-4.62,9.12.16,3.53,1.4,4.24,1.79,4.38a7.17,7.17,0,0,0,2.62-2,49.31,49.31,0,0,1,8.18-8.16l1,1.32a48.2,48.2,0,0,0-7.89,7.87,8.72,8.72,0,0,1-3.51,2.65Z" transform="translate(-144.68 -12.7)" fill="#150035"/><polygon points="117.53 178.81 105.32 177.63 105.48 175.97 117.56 177.14 126.25 176.56 126.36 178.22 117.53 178.81" fill="#150035"/><path d="M263.9,169a38.19,38.19,0,0,0-7-3l-.29-.09-4.83-7.7,1.4-.88,4.51,7.18a37,37,0,0,1,7.07,3.06Z" transform="translate(-144.68 -12.7)" fill="#150035"/><path d="M263.42,183.31l-.29-1.64a34,34,0,0,0,7.47-2.22l.26-.14c2.53-1.32,3.91-2.05,6.1-2.29l.19,1.65c-1.88.21-3,.81-5.52,2.12l-.26.14A35.43,35.43,0,0,1,263.42,183.31Z" transform="translate(-144.68 -12.7)" fill="#150035"/><path d="M272,167.17a11.8,11.8,0,0,0-8.79-6.8l.16-1.65a13.4,13.4,0,0,1,10.12,7.71Z" transform="translate(-144.68 -12.7)" fill="#150035"/><path d="M280.69,146.93l-1.67-.05c0-.09.35-9.2,9-9.2h.12l0,1.67H288C281,139.35,280.69,146.62,280.69,146.93Z" transform="translate(-144.68 -12.7)" fill="#150035"/><path d="M239.87,197a13,13,0,0,0,6.41-.18.59.59,0,0,1,.69.34l.58,1.39-5.73.22-1.37-.63Z" transform="translate(-144.68 -12.7)" fill="#150035"/><path d="M249.47,187.54s3.31.27,6.11.31a.58.58,0,0,1,.58.59v1.5L250,189.5Z" transform="translate(-144.68 -12.7)" fill="#150035"/><path d="M285.58,180.21A3.29,3.29,0,0,1,284,177.1a7.33,7.33,0,0,1,3.62-3.42c2.33-.79,2.56,1.31,2.56,1.31l-3.77,4.83Z" transform="translate(-144.68 -12.7)" fill="#150035"/><path d="M245.35,156a7,7,0,0,0,2,1.19s.63,1.94,1.34,4.31-1.34,1.35-1.34,1.35l-1.49-5.13Z" transform="translate(-144.68 -12.7)" fill="#150035"/><path d="M255.26,148.35a7.24,7.24,0,0,0,1.89,2.15s-1.35,4.63-2.72,4.08-.74-3.09-.74-3.09Z" transform="translate(-144.68 -12.7)" fill="#150035"/><path d="M294.37,126a16.07,16.07,0,0,1,7.53-4h0c.07,0,10.52.61,14.05,13.14,3.69,13.14-7.17,17.49-9.66,18.3a.06.06,0,0,1-.06-.11c1.36-.9,5.3-4.17,5.2-12A18.52,18.52,0,0,0,304.22,127s-4.62-3.91-9.79-.83C294.37,126.15,294.31,126.08,294.37,126Z" transform="translate(-144.68 -12.7)" fill="#ffb000"/><path d="M305.85,154.51l-.39-.69a.89.89,0,0,1,.32-1.14c1.15-.76,4.92-3.82,4.82-11.34a17.75,17.75,0,0,0-6.85-13.71c-.24-.19-4.32-3.53-8.89-.8l-.67.4-1-1.29,1-.85a16.22,16.22,0,0,1,7.53-3.85c.12,0,11.32.57,15,13.73,3.92,13.95-7.8,18.54-10.2,19.31Zm-7.3-30.4a10.57,10.57,0,0,1,6.2,2.2,19.16,19.16,0,0,1,7.51,15,16.5,16.5,0,0,1-2.58,9.7c3.69-2.26,7.92-6.86,5.47-15.6C311.93,124,302.86,123,302,122.89a13.68,13.68,0,0,0-3.44,1.22Z" transform="translate(-144.68 -12.7)" fill="#150035"/><path d="M321.51,139.08l-1.65-.13a11.39,11.39,0,0,0-1.89-7.79l1.29-1.06A13.06,13.06,0,0,1,321.51,139.08Z" transform="translate(-144.68 -12.7)" fill="#150035"/><path d="M256.74,167.62l-1.17-1.18a4.62,4.62,0,0,0,.79-1.46l1.57.54A6.35,6.35,0,0,1,256.74,167.62Z" transform="translate(-144.68 -12.7)" fill="#150035"/><path d="M295.66,171.17l-1.55-.61a4,4,0,0,0-1.59-1.15l.68-1.52C293.74,168.13,296.35,169.42,295.66,171.17Z" transform="translate(-144.68 -12.7)" fill="#150035"/><polygon points="166.4 135.29 165.38 133.98 171.31 129.35 172.33 130.66 166.4 135.29" fill="#150035"/><polygon points="167.27 129.28 166.25 127.97 171.31 124.02 172.33 125.33 167.27 129.28" fill="#150035"/><polygon points="160.48 114.56 159.46 113.25 162.42 110.93 163.44 112.24 160.48 114.56" fill="#150035"/><path d="M286,179.27a5.77,5.77,0,0,1-1-2.38l.55-.07a5.13,5.13,0,0,0,.88,2.12Z" transform="translate(-144.68 -12.7)" fill="#fff"/><path d="M246.59,158.66c-.58-.22-1.38-.61-1.41-.62l.24-.5s.81.39,1.36.6Z" transform="translate(-144.68 -12.7)" fill="#fff"/><path d="M255.69,151.35a10.47,10.47,0,0,1-1.09-1.16l.44-.34a10,10,0,0,0,1,1.09Z" transform="translate(-144.68 -12.7)" fill="#fff"/><path d="M324.13,133.64l-.89-1.4c.06,0,5.88-3.77,10.19-7.26l1,1.3C330.09,129.82,324.19,133.6,324.13,133.64Z" transform="translate(-144.68 -12.7)" fill="#150035"/><path d="M335.54,125.42l-.93-1.38a23.49,23.49,0,0,0,2.87-2.31l1.18,1.17A25.08,25.08,0,0,1,335.54,125.42Z" transform="translate(-144.68 -12.7)" fill="#150035"/><path d="M337.15,105a2,2,0,1,0-3.77,1.38,3.63,3.63,0,0,0,.68.92l1.72,1.65a.67.67,0,0,0,.76.24.69.69,0,0,0,.43-.67l.25-2.38A3.52,3.52,0,0,0,337.15,105Z" transform="translate(-144.68 -12.7)" fill="#ffb000"/><path d="M336.32,109.62a1.08,1.08,0,0,1-.87-.44l-1.68-1.6a3.65,3.65,0,0,1-.78-1.08,2.38,2.38,0,0,1,.07-1.85,2.42,2.42,0,0,1,4.48.19h0a3.81,3.81,0,0,1,.09,1.32l-.25,2.38a1,1,0,0,1-.7,1A1.13,1.13,0,0,1,336.32,109.62Zm-1.06-5.55a1.44,1.44,0,0,0-.54.1,1.6,1.6,0,0,0-.9.83,1.57,1.57,0,0,0-.05,1.22,2.8,2.8,0,0,0,.58.76l1.72,1.65c.1.12.2.19.33.15a.25.25,0,0,0,.15-.26l.26-2.45a3.23,3.23,0,0,0-.05-.95h0A1.61,1.61,0,0,0,335.26,104.07Z" transform="translate(-144.68 -12.7)" fill="#150035"/><path d="M338,103.84a3.14,3.14,0,0,0-2.48-1.61l0-.83a4,4,0,0,1,3.19,2Z" transform="translate(-144.68 -12.7)" fill="#150035"/><polygon points="190.2 98.42 188.43 96.79 188.99 96.17 190.76 97.8 190.2 98.42" fill="#150035"/><path d="M335.9,105.47a.66.66,0,0,1-.4.86.66.66,0,0,1-.85-.4.67.67,0,0,1,.39-.86A.66.66,0,0,1,335.9,105.47Z" transform="translate(-144.68 -12.7)" fill="#150035"/><path d="M286.09,232.81c-2.41-11.62-10.88-43.05-21-48.94a1.92,1.92,0,0,0-2.19.25L260,180.76a6.31,6.31,0,0,1,7.29-.73c13.94,8.09,22.78,50.09,23.15,51.87Z" transform="translate(-144.68 -12.7)" fill="#150035"/><path d="M229.11,226.74a11.81,11.81,0,1,0,15.41,6.37A11.82,11.82,0,0,0,229.11,226.74Z" transform="translate(-144.68 -12.7)" fill="#fff"/><path d="M233.66,250.19a12.52,12.52,0,1,1,4.79-1A12.53,12.53,0,0,1,233.66,250.19Zm0-23.64a10.92,10.92,0,0,0-4.23.86h0a11.1,11.1,0,0,0-6,14.5,11.07,11.07,0,1,0,10.2-15.36Z" transform="translate(-144.68 -12.7)" fill="#150035"/><path d="M242.15,230.8a9,9,0,0,1,3,4.51,11.82,11.82,0,0,1-6.81,13.16,9.28,9.28,0,0,1-9-1.25c-4.14-3.23-4.65-9.52-1.13-14.05S238,227.57,242.15,230.8Z" transform="translate(-144.68 -12.7)" fill="#ffb000"/><path d="M234.93,249.81a9.62,9.62,0,0,1-6-2c-4.45-3.47-5-10.23-1.26-15.07a11.55,11.55,0,0,1,7.15-4.36,9.78,9.78,0,0,1,7.73,1.87h0a9.68,9.68,0,0,1,3.3,4.87,12.62,12.62,0,0,1-7.21,14A11,11,0,0,1,234.93,249.81Zm1.7-20.16a8.89,8.89,0,0,0-1.53.14,10.1,10.1,0,0,0-6.26,3.82c-3.26,4.21-2.81,10.06,1,13a8.57,8.57,0,0,0,8.29,1.14,11.13,11.13,0,0,0,6.35-12.33,8.12,8.12,0,0,0-2.78-4.09h0A8.15,8.15,0,0,0,236.63,229.65Z" transform="translate(-144.68 -12.7)" fill="#150035"/><path d="M241.94,217.76s-4.75,3.13-1.09,10.92A12.7,12.7,0,0,0,241.94,217.76Z" transform="translate(-144.68 -12.7)" fill="#fff"/><path d="M240.72,230.1,240.2,229c-3.88-8.25,1.29-11.79,1.34-11.82l.78-.51.3.88a13.3,13.3,0,0,1-1.19,11.57Zm.86-11c-1,1.12-2.24,3.62-.65,7.95A12.13,12.13,0,0,0,241.58,219.08Z" transform="translate(-144.68 -12.7)" fill="#150035"/><path d="M238.5,228.87c-.61.67-.26,2,.77,2.91s2.37,1.17,3,.5.26-2-.77-2.92S239.11,228.2,238.5,228.87Z" transform="translate(-144.68 -12.7)" fill="#fff"/><path d="M241.26,233.39a3.8,3.8,0,0,1-2.47-1.07,4.09,4.09,0,0,1-1.21-1.91,2.13,2.13,0,0,1,.39-2h0a2.13,2.13,0,0,1,2-.58,4.33,4.33,0,0,1,3.23,2.94,2.16,2.16,0,0,1-.39,2A2,2,0,0,1,241.26,233.39Zm-1.78-4.19a.6.6,0,0,0-.45.15h0a.77.77,0,0,0-.06.69,2.62,2.62,0,0,0,.79,1.21c.75.69,1.67.86,2,.55a.77.77,0,0,0,.07-.69,2.9,2.9,0,0,0-2.07-1.89Z" transform="translate(-144.68 -12.7)" fill="#150035"/><path d="M233.73,233.21l-1.22-.76c.11-.17,1.13-1.73,4.26-1.73v1.45C234.46,232.17,233.76,233.17,233.73,233.21Z" transform="translate(-144.68 -12.7)" fill="#150035"/><ellipse cx="112.37" cy="231.45" rx="14.8" ry="14.84" fill="#fff"/><path d="M257,259.71a15.37,15.37,0,0,1-6.58-1.48A15.58,15.58,0,0,1,243,237.55h0a15.53,15.53,0,1,1,19.34,21.22A15.37,15.37,0,0,1,257,259.71ZM244.3,238.16a14.14,14.14,0,0,0,6.77,18.77,14.08,14.08,0,0,0,18.73-6.79,14.09,14.09,0,1,0-25.5-12Z" transform="translate(-144.68 -12.7)" fill="#150035"/><path d="M259.18,230.59a11.13,11.13,0,0,1,6.63,1.6,14.86,14.86,0,0,1,4.77,18,11.69,11.69,0,0,1-9.39,6.45c-6.57.51-12.35-4.91-12.9-12.09S252.61,231.1,259.18,230.59Z" transform="translate(-144.68 -12.7)" fill="#ffb000"/><path d="M260.32,257.37A12.13,12.13,0,0,1,252,254a14.32,14.32,0,0,1-4.42-9.41c-.58-7.57,4.6-14.17,11.55-14.71h0a11.84,11.84,0,0,1,7.06,1.7,15.65,15.65,0,0,1,5.05,18.89,12.42,12.42,0,0,1-10,6.88C260.94,257.36,260.63,257.37,260.32,257.37Zm-1.09-26.07c-6.16.48-10.75,6.39-10.22,13.17a12.83,12.83,0,0,0,4,8.46,10.54,10.54,0,0,0,8.15,3,11,11,0,0,0,8.81-6.07,14.18,14.18,0,0,0-4.56-17.06,10.46,10.46,0,0,0-6.15-1.47Z" transform="translate(-144.68 -12.7)" fill="#150035"/><path d="M255.05,231.88c0,.81,1,1.47,2.28,1.47s2.29-.66,2.29-1.47-1-1.48-2.29-1.48S255.05,231.06,255.05,231.88Z" transform="translate(-144.68 -12.7)" fill="#fff"/><path d="M257.33,234.08c-1.68,0-3-1-3-2.2s1.32-2.2,3-2.2,3,1,3,2.2S259,234.08,257.33,234.08Zm0-3c-.94,0-1.56.45-1.56.76s.62.75,1.56.75,1.57-.45,1.57-.75S258.28,231.12,257.33,231.12Z" transform="translate(-144.68 -12.7)" fill="#150035"/><path d="M250.19,219.33s-1.77,6.93,8.19,11.07A15.9,15.9,0,0,0,250.19,219.33Z" transform="translate(-144.68 -12.7)" fill="#fff"/><path d="M259.24,231.54l-1.14-.48c-10.41-4.32-8.63-11.83-8.61-11.9l.23-.91.82.45a16.47,16.47,0,0,1,8.55,11.61Zm-8.46-11c0,1.83.68,5.71,6.57,8.62A15.62,15.62,0,0,0,250.78,220.52Z" transform="translate(-144.68 -12.7)" fill="#150035"/><ellipse cx="135.17" cy="224.11" rx="14.8" ry="14.84" fill="#fff"/><path d="M279.84,252.38a15.57,15.57,0,0,1-14-22.17h0a15.52,15.52,0,0,1,28.1,13.2,15.56,15.56,0,0,1-14.06,9ZM267.1,230.83a14.14,14.14,0,0,0,6.78,18.76,14.11,14.11,0,1,0-6.78-18.76Z" transform="translate(-144.68 -12.7)" fill="#150035"/><path d="M282,223.25a11.16,11.16,0,0,1,6.63,1.6,14.85,14.85,0,0,1,4.77,18,11.69,11.69,0,0,1-9.39,6.46c-6.57.51-12.34-4.91-12.9-12.1S275.41,223.76,282,223.25Z" transform="translate(-144.68 -12.7)" fill="#ffb000"/><path d="M283.13,250a12.12,12.12,0,0,1-8.34-3.39,14.39,14.39,0,0,1-4.42-9.4c-.58-7.58,4.6-14.18,11.56-14.72h0a11.81,11.81,0,0,1,7.05,1.71A15.66,15.66,0,0,1,294,243.13a12.41,12.41,0,0,1-10,6.87C283.74,250,283.43,250,283.13,250ZM282,224c-6.17.48-10.75,6.39-10.23,13.17a12.85,12.85,0,0,0,4,8.46,10.59,10.59,0,0,0,8.16,3,11,11,0,0,0,8.8-6.07,14.18,14.18,0,0,0-4.55-17.06A10.4,10.4,0,0,0,282,224Z" transform="translate(-144.68 -12.7)" fill="#150035"/><path d="M277.85,224.54c0,.82,1,1.48,2.29,1.48s2.28-.66,2.28-1.48-1-1.48-2.28-1.48S277.85,223.73,277.85,224.54Z" transform="translate(-144.68 -12.7)" fill="#fff"/><path d="M280.14,226.74c-1.69,0-3-1-3-2.2s1.32-2.2,3-2.2,3,1,3,2.2S281.82,226.74,280.14,226.74Zm0-3c-.95,0-1.57.45-1.57.75s.62.76,1.57.76,1.56-.46,1.56-.76S281.08,223.79,280.14,223.79Z" transform="translate(-144.68 -12.7)" fill="#150035"/><path d="M289.07,211.24s1.76,6.92-8.19,11.06A15.89,15.89,0,0,1,289.07,211.24Z" transform="translate(-144.68 -12.7)" fill="#fff"/><path d="M280,223.44l.14-1.23a16.49,16.49,0,0,1,8.56-11.6l.81-.46.23.91c0,.07,1.8,7.58-8.61,11.91Zm8.45-11a15.5,15.5,0,0,0-6.57,8.62C287.74,218.16,288.48,214.26,288.47,212.43Z" transform="translate(-144.68 -12.7)" fill="#150035"/><path d="M289.63,235.15a8.63,8.63,0,0,0-4.14-6.59l.66-1.28a10,10,0,0,1,4.91,7.74Z" transform="translate(-144.68 -12.7)" fill="#150035"/><path d="M301.18,237.33a8.5,8.5,0,0,0-4.14-6.58l.67-1.28a10,10,0,0,1,4.9,7.73Z" transform="translate(-144.68 -12.7)" fill="#150035"/><path d="M225.16,233.19l-4.1-1.67c7.54-18.53,15.48-29.86,18.81-34.18a10.16,10.16,0,0,0,1.76,1.09l3.17-.15C244.7,198.4,234.51,210.21,225.16,233.19Z" transform="translate(-144.68 -12.7)" fill="#150035"/><path d="M222.37,230.59l-1-.38c1.19-3.32,4.3-9.64,4.43-9.9l1,.49C226.72,220.86,223.54,227.32,222.37,230.59Z" transform="translate(-144.68 -12.7)" fill="#ffb000"/><path d="M229.61,226.21l-1-.38c1.24-3.39,4-9.24,4.05-9.3l1,.48C233.6,217.07,230.83,222.87,229.61,226.21Z" transform="translate(-144.68 -12.7)" fill="#ffb000"/><path d="M257.45,251.68l-4.2-1.41c7.45-22.31,15.92-60,6.95-66a3.7,3.7,0,0,0-1.11-.6l-3.48-1.57a3.4,3.4,0,0,1,2-2.57c2.11-.94,4.35.56,5.08,1.06C277.36,190.47,259.53,245.45,257.45,251.68Z" transform="translate(-144.68 -12.7)" fill="#150035"/><path d="M265.15,184a8.43,8.43,0,0,0-3.11-2.82l.47-1a9.44,9.44,0,0,1,3.58,3.23Z" transform="translate(-144.68 -12.7)" fill="#ffb000"/><path d="M263.06,255.47l-5.26,60.16h0L288,290.83h0l24.47-7.49h0L297,235.87h0l-33.88,19.59Z" transform="translate(-144.68 -12.7)" fill="#150035"/><path d="M258,316.61l-1-.44v-.54l5.26-60.2v-.56l.49-.17,34.17-19.76.76.32.11.39,15.6,47.78-.4.67-.38.06-24.22,7.42Zm5.9-60.64-5.05,57.79,28.76-23.68.16-.05,23.68-7.24-14.92-45.7Z" transform="translate(-144.68 -12.7)" fill="#150035"/><path d="M205.47,285.69l52.32,30h0l5.26-60.17h0l-48.86-28.41a0,0,0,0,0,0,0l-8.7,58.63Z" transform="translate(-144.68 -12.7)" fill="#ffb000"/><path d="M257.77,316.59l-.4-.22-52.36-30-.37-.24v-.58l8.76-59,.72-.41.39.16L263.88,255v.49l-5.3,60.7Zm-51.4-31.34,50.72,29,5.1-58.37-47.38-27.55Z" transform="translate(-144.68 -12.7)" fill="#150035"/><path d="M207.4,272.86l-1.93,13h0l52.32,30h0L259,302.39Z" transform="translate(-144.68 -12.7)" fill="#fff"/><path d="M257.85,316.77l-.39-.16-52.82-30.24v-.61l2.11-14.23,53.09,30.4-1.26,14.42Zm-51.48-31.32,50.72,29,1-11.64L208,274.18Z" transform="translate(-144.68 -12.7)" fill="#150035"/><polygon points="116.6 296.56 121.04 246.99 122.14 247.08 117.94 294.03 142 274.26 135.82 238.39 136.91 238.2 143.2 274.71 116.6 296.56" fill="#ffb000"/><polygon points="142.76 275.02 142.45 273.95 163.19 267.88 151.18 230.53 152.23 230.19 164.6 268.62 142.76 275.02" fill="#ffb000"/><polygon points="117.74 255.28 115.44 250.76 112.71 252.77 110.05 247.6 107 249.43 104.33 244.25 100.99 245.91 98.19 240.73 95.22 242.61 92.41 237.43 89.78 239.5 86.93 234.24 84.21 236.28 81.59 231.19 79.05 233.3 76.18 228.01 73.31 229.98 70.9 224.99 68.65 226.6 68.01 225.69 71.32 223.32 73.75 228.33 76.57 226.39 79.38 231.59 81.95 229.46 84.6 234.61 87.29 232.59 90.13 237.82 92.76 235.74 95.63 241.04 98.6 239.16 101.45 244.44 104.81 242.78 107.44 247.87 110.49 246.04 113.1 251.11 115.84 249.09 118.73 254.77 117.74 255.28" fill="#150035"/><polygon points="117.74 261.48 115.44 256.96 112.71 258.98 110.05 253.8 107 255.63 104.33 250.46 100.99 252.12 98.19 246.93 95.22 248.82 92.41 243.63 89.78 245.71 86.93 240.45 84.21 242.49 81.59 237.39 79.05 239.51 76.18 234.21 73.33 236.17 70.71 231.2 67.43 233.78 66.75 232.91 71.07 229.51 73.73 234.55 76.57 232.6 79.38 237.79 81.95 235.66 84.6 240.81 87.29 238.79 90.13 244.02 92.76 241.94 95.63 247.24 98.6 245.36 101.45 250.65 104.81 248.98 107.44 254.07 110.49 252.24 113.1 257.31 115.84 255.29 118.73 260.98 117.74 261.48" fill="#150035"/><polygon points="114.33 285.88 62.76 256.35 63.58 254.9 115.16 284.43 114.33 285.88" fill="#150035"/><polygon points="159.44 266.97 156.08 256.77 157.13 256.43 160.5 266.62 159.44 266.97" fill="#ffb000"/><rect x="266.28" y="259.36" width="6.54" height="1.11" transform="translate(-158.25 492.27) rotate(-84.84)" fill="#ffb000"/><path d="M183.9,37l-25-14.45a3.86,3.86,0,0,0-3.68-.44h0l-8.16,5a.08.08,0,0,0,0,.11c.36.77,3.75,7.87,4.06,9.18.13.55,1.19,6,2.42,12.31v3.19a11.18,11.18,0,0,0,1.67,5.49s0,0,0,0c1.28,6.6,2.37,12.24,2.4,12.38h0l3.7,8.76a.09.09,0,0,0,.13,0l8.45-4.94a.08.08,0,0,0,0-.11l-.63-1.78v0A23.09,23.09,0,0,1,169,69l10.78,12a.08.08,0,0,0,.11,0l7.87-4.87.12-.08h0a3.85,3.85,0,0,0,1.51-3.45V46.46A12.1,12.1,0,0,0,183.9,37Z" transform="translate(-144.68 -12.7)" fill="#ffb000"/><path d="M179.81,81.91a.93.93,0,0,1-.68-.3l-9-10.06v0l.61,1.74a.92.92,0,0,1-.4,1.1l-8.78,5.13-.43-.11a1,1,0,0,1-.56-.52L156.8,70l-2.37-12.24a11.9,11.9,0,0,1-1.72-5.8v-3.1c-1.49-7.65-2.3-11.75-2.4-12.21-.2-.86-2.22-5.27-4-9a.92.92,0,0,1,.34-1.17l8.64-5.34.09.06a4.91,4.91,0,0,1,4,.67l25,14.45a13,13,0,0,1,5.86,10.17v26.2a4.67,4.67,0,0,1-1.89,4.16l-8,5A1,1,0,0,1,179.81,81.91ZM168,66.72,179.94,80l7.35-4.55.56.63-.45-.7a3.09,3.09,0,0,0,1.12-2.75V46.46a11.36,11.36,0,0,0-5-8.73l-25-14.45a3.08,3.08,0,0,0-2.89-.42l0,0-7.48,4.63c1.1,2.33,3.54,7.53,3.82,8.74.12.49.91,4.52,2.43,12.34l0,.18v3.17A10.4,10.4,0,0,0,155.93,57l.07.13,0,.18,2.38,12.29,3.33,7.9,7.2-4.21L168.49,72a21.12,21.12,0,0,1-.35-2.88Z" transform="translate(-144.68 -12.7)" fill="#150035"/><path d="M183.88,37,159.71,23,148,30.41l25.81,13.73L179,45l8.1-4.82A10.6,10.6,0,0,0,183.88,37Z" transform="translate(-144.68 -12.7)" fill="#fff"/><path d="M179.19,45.84l-5.82-1L146.29,30.48,159.7,22l24.59,14.25a11.31,11.31,0,0,1,3.51,3.38l.51.74ZM174,43.34l4.83.76,7-4.19a9.12,9.12,0,0,0-2.45-2.18L159.73,24l-10.12,6.37Z" transform="translate(-144.68 -12.7)" fill="#150035"/><path d="M181.05,49.28s-10.11,2.39-10.76,2.64a132.16,132.16,0,0,0-13.83,11.95c.67,3.47,1.14,5.87,1.16,6h0l3.7,8.76a.09.09,0,0,0,.13,0l8.45-4.94a.08.08,0,0,0,0-.11l-.63-1.78v0A23.09,23.09,0,0,1,169,69l10.78,12a.08.08,0,0,0,.11,0l7.87-4.87.12-.08h0a3.85,3.85,0,0,0,1.51-3.45V46.46a8.59,8.59,0,0,0-.25-2Z" transform="translate(-144.68 -12.7)" fill="#150035"/><polygon points="38.16 40.08 37.59 39.13 43.57 35.5 44.15 36.45 38.16 40.08" fill="#ffb000"/><polygon points="38.16 64.29 37.59 63.34 43.57 59.7 44.15 60.65 38.16 64.29" fill="#ffb000"/><path d="M175.92,42l-25-14.47c-3-1.73-5.4-.33-5.4,3.12V56.91a12,12,0,0,0,5.4,9.37l2.85,1.65a2.43,2.43,0,0,1,1.05,1.61,14.19,14.19,0,0,0,5.49,9.11c.79.59,1.42.09,1.19-.93a20.67,20.67,0,0,1-.58-4.41c0-.69.49-1,1.08-.61l13.93,8.06c3,1.72,5.4.32,5.4-3.13V51.38A12,12,0,0,0,175.92,42Z" transform="translate(-144.68 -12.7)" fill="#ffb000"/><path d="M178.33,82.33a5.67,5.67,0,0,1-2.82-.85l-13.76-8a19.9,19.9,0,0,0,.55,4,1.78,1.78,0,0,1-.61,2,1.61,1.61,0,0,1-1.89-.19A14.94,14.94,0,0,1,154,69.67a1.58,1.58,0,0,0-.65-1L150.5,67a12.71,12.71,0,0,1-5.82-10.09V30.65a4.1,4.1,0,0,1,6.65-3.84l25,14.47a12.72,12.72,0,0,1,5.81,10.1V77.63a4.6,4.6,0,0,1-2,4.23A3.63,3.63,0,0,1,178.33,82.33ZM161.5,71.71a1.85,1.85,0,0,1,.91.26L176.34,80a2.49,2.49,0,0,0,4.15-2.41V51.38a11.11,11.11,0,0,0-5-8.66l-25-14.47a3,3,0,0,0-3-.38,3,3,0,0,0-1.17,2.78V56.91a11.06,11.06,0,0,0,5,8.65l2.84,1.65a3.23,3.23,0,0,1,1.46,2.2,13.32,13.32,0,0,0,5,8.48,22.62,22.62,0,0,1-.59-4.57,1.56,1.56,0,0,1,.72-1.42A1.41,1.41,0,0,1,161.5,71.71Z" transform="translate(-144.68 -12.7)" fill="#150035"/><path d="M170.92,49.34c-3.15-4.53-6.71-2.76-7.49-1.64,0,0,0,0,0,0-.79-2-4.35-7.91-7.5-7s-2.67,4.91-1.06,9.55c1.31,3.77,7.18,13.86,8.42,16,.13.22.34.34.46.27,1.51-.85,6.87-4,8.25-6.35C173.59,57.34,174.22,54.1,170.92,49.34Z" transform="translate(-144.68 -12.7)" fill="#fff"/><path d="M163.66,67.32a1.3,1.3,0,0,1-1.1-.7c-1.66-2.84-7.19-12.39-8.49-16.14-1.48-4.28-1.74-7-.83-8.71a3.78,3.78,0,0,1,2.45-1.91c3.3-.93,6.63,3.74,8,6.47a5,5,0,0,1,2.63-.76h0c1.35,0,3.37.57,5.26,3.3h0c3.8,5.47,2.58,9.11,1.09,11.67s-6.46,5.48-8.55,6.65A.94.94,0,0,1,163.66,67.32ZM156.57,41.4a1.59,1.59,0,0,0-.43.06,2.16,2.16,0,0,0-1.43,1.08c-.88,1.69.11,5,.93,7.4,1.23,3.53,6.67,13,8.17,15.53,3.06-1.76,6.49-4.12,7.45-5.77,1.31-2.26,2.22-5.21-1-9.88h0c-1.18-1.69-2.53-2.59-3.9-2.59a2.79,2.79,0,0,0-2.23,1l-.29.4-1-.11-.19-.49C161.84,45.93,158.86,41.4,156.57,41.4Z" transform="translate(-144.68 -12.7)" fill="#150035"/><path d="M155.81,48.48c-.17-.48-.94-3,.16-4.36a2.41,2.41,0,0,1,2.28-.79L158.07,45c-.6-.06-.75.12-.8.19-.4.49-.17,1.95.11,2.78Z" transform="translate(-144.68 -12.7)" fill="#150035"/><path d="M163.72,61.94a24.92,24.92,0,0,0,3.48-2.22Z" transform="translate(-144.68 -12.7)" fill="#ffb000"/><path d="M164.09,62.68l-.74-1.49a24.14,24.14,0,0,0,3.34-2.13l1,1.32A24.4,24.4,0,0,1,164.09,62.68Z" transform="translate(-144.68 -12.7)" fill="#150035"/><path d="M342.82,193.9l-26-15a4,4,0,0,0-3.83-.46h0l-8.49,5.25a.08.08,0,0,0,0,.11c.37.79,3.9,8.18,4.22,9.54.13.58,1.24,6.23,2.51,12.81h0v3.3a11.65,11.65,0,0,0,1.74,5.71s0,0,0,0c1.33,6.86,2.46,12.72,2.49,12.87h0l11.93,4,.84,0a.1.1,0,0,0,.05-.11l-.66-1.86h0a21.17,21.17,0,0,1-.36-2.88l11.2,12.5a.11.11,0,0,0,.12,0l8.19-5.07.12-.08h0a4,4,0,0,0,1.56-3.59V203.73A12.6,12.6,0,0,0,342.82,193.9Z" transform="translate(-144.68 -12.7)" fill="#ffb000"/><path d="M338.56,240.56a.91.91,0,0,1-.68-.3l-9.45-10.54a.77.77,0,0,0,0,.15l.64,1.8a.92.92,0,0,1-.41,1.11l-.19.11-1.19,0-12.47-4.2-.16-.52c0-.15-1.15-5.94-2.46-12.75a12.21,12.21,0,0,1-1.79-6v-3.22c-1.55-8-2.39-12.23-2.5-12.71-.21-.9-2.24-5.35-4.16-9.37a.92.92,0,0,1,.33-1.17l9-5.57.08.07a5.12,5.12,0,0,1,4.1.7l26,15a13.5,13.5,0,0,1,6.07,10.55V231a4.81,4.81,0,0,1-1.94,4.29l-8.32,5.15A.87.87,0,0,1,338.56,240.56Zm-12.23-15.67,12.37,13.8,7.66-4.75.54.64-.42-.71a3.26,3.26,0,0,0,1.17-2.89V203.73a11.81,11.81,0,0,0-5.24-9.1l-26-15a3.24,3.24,0,0,0-3-.44l0,0L305.54,184c1.15,2.4,3.7,7.85,4,9.1.11.51.92,4.59,2.52,12.84l0,.17v3.3a10.85,10.85,0,0,0,1.62,5.28l.11.29c1.12,5.8,2.11,10.89,2.4,12.42l10.92,3.68-.3-.86a22.6,22.6,0,0,1-.37-3Z" transform="translate(-144.68 -12.7)" fill="#150035"/><path d="M342.8,193.9l-25.13-14.55-12.24,7.7,26.85,14.27,5.47.87,8.42-5A11,11,0,0,0,342.8,193.9Z" transform="translate(-144.68 -12.7)" fill="#fff"/><path d="M337.92,203.06l-6-1-28.12-14.94,13.88-8.73,25.56,14.8a11.67,11.67,0,0,1,3.65,3.52l.5.73Zm-5.38-2.54,5,.8,7.38-4.39a9.31,9.31,0,0,0-2.58-2.3l-24.69-14.31L307.09,187Z" transform="translate(-144.68 -12.7)" fill="#150035"/><path d="M339.86,206.67s-10.52,2.48-11.19,2.74-10.86,8.54-14.38,12.43c.71,3.67,11.08,10,11.08,10l3.95,9.6,8.92-5.29.26,3.5.11,0,8.19-5.07.12-.08h0a4,4,0,0,0,1.56-3.59V203.73a8.78,8.78,0,0,0-.25-2.06Z" transform="translate(-144.68 -12.7)" fill="#150035"/><polygon points="197.03 197.59 196.46 196.64 202.68 192.86 203.25 193.81 197.03 197.59" fill="#ffb000"/><polygon points="197.03 222.76 196.46 221.81 202.68 218.03 203.25 218.98 197.03 222.76" fill="#ffb000"/><path d="M308.51,184.05l26,15a12.45,12.45,0,0,1,5.62,9.75v27.3c0,3.59-2.52,5-5.62,3.25l-3-1.71c-.53-.31-1-.14-1.1.4-.32,1.64-1.48,4.61-5.7,2.87a2.3,2.3,0,0,1-1.23-2.39,13.63,13.63,0,0,0,.6-3.89,2.51,2.51,0,0,0-1.13-2l-14.49-8.38a12.45,12.45,0,0,1-5.61-9.75V187.29C302.9,183.71,305.41,182.25,308.51,184.05Z" transform="translate(-144.68 -12.7)" fill="#ffb000"/><path d="M327.07,242.32a6.89,6.89,0,0,1-2.63-.59,3.14,3.14,0,0,1-1.71-3.41,12.42,12.42,0,0,0,.57-3.65,1.71,1.71,0,0,0-.71-1.22l-14.49-8.38a13.2,13.2,0,0,1-6-10.47V187.29c0-2,.73-3.59,2.06-4.36s3-.63,4.8.39l26,15.06a13.19,13.19,0,0,1,6,10.47v27.3c0,2-.73,3.6-2.06,4.37a4.72,4.72,0,0,1-4.8-.4l-2.87-1.66a5,5,0,0,1-2.27,3.41A4,4,0,0,1,327.07,242.32ZM306,184.11a2,2,0,0,0-1.05.26,3.2,3.2,0,0,0-1.23,2.92V214.6a11.54,11.54,0,0,0,5.2,9L323.42,232a3.32,3.32,0,0,1,1.54,2.67,14.44,14.44,0,0,1-.64,4.13,1.56,1.56,0,0,0,.75,1.38,3.66,3.66,0,0,0,3.11.21,3.59,3.59,0,0,0,1.47-2.47,1.44,1.44,0,0,1,.82-1.1A1.64,1.64,0,0,1,332,237l3,1.72a2.62,2.62,0,0,0,4.37-2.53v-27.3a11.54,11.54,0,0,0-5.2-9l-26-15A4.28,4.28,0,0,0,306,184.11Z" transform="translate(-144.68 -12.7)" fill="#150035"/><path d="M313.43,205.51s-2.05.12-1.72,4.92,2.1,7,2.1,7l4,1.38s.08.13.23.34c2.5,3.61,6,5.54,8.47,4.84l1.52-.43-.29-10.35a15.36,15.36,0,0,1-3.27-3.78c-1.05-2,.33-2.18.25-4.51s-1.8-6.43-3.6-6.45-1,2-.63,3.86a4,4,0,0,1-2,4.29,3.86,3.86,0,0,0-1.76,1.5A7.22,7.22,0,0,0,313.43,205.51Z" transform="translate(-144.68 -12.7)" fill="#fff"/><path d="M325.41,225c-2.66,0-5.76-2-8.08-5.35a1,1,0,0,0-.08-.11l-3.94-1.37-.15-.19c-.08-.1-1.93-2.49-2.27-7.49-.17-2.34.18-4,1-5a2.16,2.16,0,0,1,1.45-.8l.21,0,.19.09a9.5,9.5,0,0,1,3,2.08,6.61,6.61,0,0,1,1.36-.93,3.12,3.12,0,0,0,1.54-3.38c-.06-.28-.13-.56-.19-.84-.31-1.31-.6-2.54.07-3.37a1.81,1.81,0,0,1,1.57-.64c2.54,0,4.33,4.78,4.42,7.25a5.79,5.79,0,0,1-.44,2.43,1.61,1.61,0,0,0,.09,1.72,14.71,14.71,0,0,0,3.06,3.53l.3.24.32,11.38-2.15.6A4.69,4.69,0,0,1,325.41,225Zm-11.07-8.24,4,1.39.16.24a2.48,2.48,0,0,0,.21.31c2.27,3.27,5.39,5.14,7.56,4.52l.9-.25-.26-9.34a15,15,0,0,1-3.18-3.78,3.19,3.19,0,0,1-.18-3.08,4.11,4.11,0,0,0,.33-1.79c-.08-2.26-1.75-5.63-2.78-5.65a1,1,0,0,0-.27,0,5.62,5.62,0,0,0,.27,1.93c.06.3.13.6.19.89a4.82,4.82,0,0,1-2.4,5.2,3.25,3.25,0,0,0-1.4,1.13l-.73,1.36-.74-1.34a6.46,6.46,0,0,0-2.64-2.14c-.39.26-1,1.27-.83,4A13.75,13.75,0,0,0,314.34,216.76Z" transform="translate(-144.68 -12.7)" fill="#150035"/><path d="M317.06,219.23a11.26,11.26,0,0,1-1-3.74l1.66-.13a9.66,9.66,0,0,0,.78,3.09Z" transform="translate(-144.68 -12.7)" fill="#150035"/><path d="M317.28,210.28l-1.66,0c.05-2,.34-2.44.44-2.57l1.36,1A12,12,0,0,0,317.28,210.28Z" transform="translate(-144.68 -12.7)" fill="#150035"/><path d="M329.93,218.26l-5-2.91a3.42,3.42,0,0,1-1.42-2.73h0c0-1.06.63-1.54,1.42-1.08l5,2.9a3.43,3.43,0,0,1,1.43,2.74h0C331.36,218.23,330.72,218.71,329.93,218.26Z" transform="translate(-144.68 -12.7)" fill="#fff"/><path d="M330.5,219.26a1.93,1.93,0,0,1-1-.28l-5-2.91a4.22,4.22,0,0,1-1.84-3.45,2.08,2.08,0,0,1,.9-1.88,1.74,1.74,0,0,1,1.77.08l5,2.9a4.22,4.22,0,0,1,1.84,3.46,2.06,2.06,0,0,1-.91,1.87A1.52,1.52,0,0,1,330.5,219.26Zm-6.15-7.06s0,.14,0,.42a2.64,2.64,0,0,0,1,2l5,2.91.15.06s0-.14,0-.42a2.64,2.64,0,0,0-1-2l-5-2.9A.32.32,0,0,0,324.35,212.2Z" transform="translate(-144.68 -12.7)" fill="#150035"/><path d="M329.6,221.21l-4.35-2.52a2.84,2.84,0,0,1-1.18-2.25h0c0-.87.53-1.27,1.18-.89l4.35,2.51a2.84,2.84,0,0,1,1.17,2.26h0C330.77,221.18,330.25,221.58,329.6,221.21Z" transform="translate(-144.68 -12.7)" fill="#fff"/><path d="M330.07,222.18a1.77,1.77,0,0,1-.89-.25l-4.35-2.52a3.64,3.64,0,0,1-1.59-3,1.85,1.85,0,0,1,.82-1.68,1.59,1.59,0,0,1,1.6.06l4.35,2.52a3.65,3.65,0,0,1,1.59,3,1.82,1.82,0,0,1-.82,1.67A1.38,1.38,0,0,1,330.07,222.18Zm-5.16-5.87s0,.08,0,.13a2,2,0,0,0,.76,1.53l4.28,2.47v-.12a2,2,0,0,0-.76-1.54Z" transform="translate(-144.68 -12.7)" fill="#150035"/><path d="M329.1,224.06l-3.85-2.23a2.81,2.81,0,0,1-1.18-2.25h0c0-.87.53-1.27,1.18-.89l3.85,2.23a2.8,2.8,0,0,1,1.17,2.25h0C330.27,224,329.75,224.44,329.1,224.06Z" transform="translate(-144.68 -12.7)" fill="#fff"/><path d="M329.56,225a1.73,1.73,0,0,1-.88-.25l-3.85-2.23a3.64,3.64,0,0,1-1.59-3,1.84,1.84,0,0,1,.82-1.67,1.56,1.56,0,0,1,1.6.06l3.85,2.23a3.62,3.62,0,0,1,1.59,3,1.84,1.84,0,0,1-.82,1.67A1.39,1.39,0,0,1,329.56,225Zm-4.65-5.58s0,.08,0,.13a2,2,0,0,0,.76,1.53l3.78,2.19v-.13a2,2,0,0,0-.76-1.53Z" transform="translate(-144.68 -12.7)" fill="#150035"/><path d="M328.43,226.82l-2.72-1.57a2.85,2.85,0,0,1-1.18-2.26h0c0-.87.53-1.27,1.18-.89l2.72,1.57a2.84,2.84,0,0,1,1.17,2.26h0C329.6,226.79,329.08,227.19,328.43,226.82Z" transform="translate(-144.68 -12.7)" fill="#fff"/><path d="M328.89,227.79a1.73,1.73,0,0,1-.88-.25L325.29,226a3.67,3.67,0,0,1-1.59-3,1.84,1.84,0,0,1,.82-1.67,1.56,1.56,0,0,1,1.6.06l2.72,1.57a3.65,3.65,0,0,1,1.59,3,1.84,1.84,0,0,1-.82,1.67A1.39,1.39,0,0,1,328.89,227.79Zm-3.52-4.92s0,.07,0,.12a2.06,2.06,0,0,0,.76,1.54l2.65,1.52v-.12a2.06,2.06,0,0,0-.76-1.54Z" transform="translate(-144.68 -12.7)" fill="#150035"/><path d="M310,82.26c-1.48-5.13-4.79-6.72-7.5-7.09a10.52,10.52,0,0,0-5.61.87l-1.53.79q-24.45,12.57-49.91,23h0l-11.88,4.32s-23.66,2.84-25.76,4.53-2.21,2.74-2.21,2.74l-10.83,12.65S190,133.79,188,139a22.42,22.42,0,0,0-1.58,9.38,7.47,7.47,0,0,0,3.37,1.37s-.32,1.58-.53,3.69a19,19,0,0,0,0,3.8,4.49,4.49,0,0,0,4.42.63v.84c1.37,1.79,3.15,1,4.42,0,1-.76,2.79-3.94,3.43-5.13a.36.36,0,0,1,.59-.06l1.13,1.3c2.63.74,4.94-1.17,6.94-3.49s6.26-6.95,6.26-6.95,15.07-9.08,18.87-10.75c0,0,5.5-2.83,8.36-4.38,4.36-2.36,10.15-8,10.15-8,1.68-1.37,8.93-3.69,18.5-6,6.83-1.65,16.81-4.27,22-5.63a37.41,37.41,0,0,0,8-3.22,29.88,29.88,0,0,0,4.87-3.74C310.64,99.73,312.71,91.75,310,82.26Z" transform="translate(-144.68 -12.7)" fill="#fff"/><path d="M195.6,160.55a3.24,3.24,0,0,1-2.56-1.38l-.17-.27a4.88,4.88,0,0,1-4.14-1.09l-.23-.21,0-.31a19.39,19.39,0,0,1,0-4c.12-1.23.27-2.27.39-2.95a7.19,7.19,0,0,1-3-1.41l-.23-.22,0-.31a23,23,0,0,1,1.63-9.77c2-5.14,6.71-14.83,6.75-14.93l.12-.17,10.7-12.5a6.86,6.86,0,0,1,2.45-3c2.16-1.73,21.89-4.19,26.09-4.7l11.79-4.29c16.83-6.9,33.6-14.64,49.81-23l1.53-.79a11.33,11.33,0,0,1,6.1-1c2.84.39,6.55,2,8.18,7.68,2.85,9.86.62,18.15-3,21.25l-.4.35a26.85,26.85,0,0,1-4.61,3.49,38.17,38.17,0,0,1-8.18,3.28c-5.28,1.4-15.17,4-22,5.64-9.52,2.31-16.65,4.6-18.18,5.85-.19.18-5.86,5.65-10.27,8-2.84,1.54-8.33,4.36-8.38,4.39-3.59,1.58-17.39,9.86-18.72,10.66-.6.65-4.35,4.74-6.16,6.85s-4.49,4.67-7.8,3.74l-.24-.07-.84-1c-1.06,1.91-2.4,4.09-3.35,4.8A5.14,5.14,0,0,1,195.6,160.55Zm-1.07-2.18c.41.46,1.24,1,3.09-.37a21.29,21.29,0,0,0,3.2-4.86,1.18,1.18,0,0,1,.91-.62,1.21,1.21,0,0,1,1,.41l.95,1.09c1.76.38,3.59-.64,5.86-3.28,2-2.3,6.24-6.93,6.28-7l.18-.15c.62-.37,15.16-9.12,19-10.8,0,0,5.49-2.82,8.31-4.34,4.2-2.28,9.9-7.77,10-7.83,2.66-2.17,15.13-5.3,18.89-6.21,6.8-1.65,16.67-4.24,21.95-5.64a35.66,35.66,0,0,0,7.82-3.15,25.29,25.29,0,0,0,4.29-3.25l.43-.39c3.18-2.68,5.14-10.43,2.53-19.5h0c-1.11-3.85-3.4-6-6.81-6.5a9.68,9.68,0,0,0-5.17.8l-1.48.77c-16.25,8.36-33.06,16.11-50,23.05L233.65,105c-9.73,1.17-24,3.3-25.34,4.36-1.71,1.37-1.91,2.21-1.91,2.22l0,.26-.16.15-10.76,12.57c-.5,1-4.8,9.9-6.66,14.7a22.42,22.42,0,0,0-1.54,8.66,7,7,0,0,0,2.68,1l.86.12-.17.87s-.31,1.57-.51,3.6a19.34,19.34,0,0,0,0,3.29,3.72,3.72,0,0,0,3.31.29l1.15-.46Z" transform="translate(-144.68 -12.7)" fill="#150035"/><path d="M189.94,150.52l-.27-1.64.14.82-.15-.82a3.29,3.29,0,0,0,2.21-2.22c.95-2.42,4.7-10.56,4.86-10.9l.09-.15,3.51-4.69s4.36-3.48,5.42-6.38a11.21,11.21,0,0,0,.9-4.47l1.65-.2a12.38,12.38,0,0,1-1,5.24c-1.15,3.13-5.19,6.5-5.86,7l-3.25,4.37c-.39.86-3.9,8.49-4.78,10.74A4.9,4.9,0,0,1,189.94,150.52Z" transform="translate(-144.68 -12.7)" fill="#150035"/><path d="M194,158.59l-.65-1.53s1.47-.72,2.37-3.8c1.07-3.63,6.57-13.55,6.8-14l.09-.15.13-.1a25.81,25.81,0,0,0,4.76-4.87,6.79,6.79,0,0,0,1.36-4.28l1.65-.21a8.48,8.48,0,0,1-1.63,5.43,26.73,26.73,0,0,1-5,5.14c-.69,1.26-5.63,10.27-6.58,13.49C196.2,157.59,194.24,158.5,194,158.59Z" transform="translate(-144.68 -12.7)" fill="#150035"/><path d="M202.21,154l-1.32-1,5.4-7a80.16,80.16,0,0,0,6-6c1.57-2,2.09-4,1.33-5.13L215,134c1.19,1.79.65,4.51-1.41,7.09a76.54,76.54,0,0,1-6.13,6.16Z" transform="translate(-144.68 -12.7)" fill="#150035"/><path d="M225.22,125.83l-.46-1.8a12.39,12.39,0,0,0-2.89-4.3,10.15,10.15,0,0,0-6-3l-3-.37.2-1.65,3,.37a11.77,11.77,0,0,1,7,3.47,14.13,14.13,0,0,1,3.3,5l.47,1.84Z" transform="translate(-144.68 -12.7)" fill="#150035"/><path d="M224,129.3c-1.62-1.7-4.47-3.9-5.76-3.47l-.52-1.58c2.72-.91,6.71,3.09,7.48,3.9Z" transform="translate(-144.68 -12.7)" fill="#150035"/><path d="M253.85,122.35l-1.4-.9a20.3,20.3,0,0,0,3-8.48l1.65.11A21.4,21.4,0,0,1,253.85,122.35Z" transform="translate(-144.68 -12.7)" fill="#150035"/><path d="M255,111.27a4.51,4.51,0,0,0-1.44-2.93l.9-1.4c.17.11,1.66,1.14,2.17,4Z" transform="translate(-144.68 -12.7)" fill="#150035"/><path d="M175.76,111.21l-1.65-.17a15.26,15.26,0,0,1,4.16-9.14l1.13,1.21A13.88,13.88,0,0,0,175.76,111.21Z" transform="translate(-144.68 -12.7)" fill="#150035"/><path d="M204.1,139.73l-1.66-.08a9.23,9.23,0,0,0-.43-2.88l1.57-.54A11.13,11.13,0,0,1,204.1,139.73Z" transform="translate(-144.68 -12.7)" fill="#150035"/><path d="M201.1,132.43l-1.66-.09a9.13,9.13,0,0,0-.43-2.87l1.57-.54A11.06,11.06,0,0,1,201.1,132.43Z" transform="translate(-144.68 -12.7)" fill="#150035"/><path d="M207.18,147.57l-1.31-1c.46-.6.27-2.27,0-3.26l1.6-.46C207.55,143.16,208.34,146.07,207.18,147.57Z" transform="translate(-144.68 -12.7)" fill="#150035"/><path d="M187,142.32l1,.43a.88.88,0,0,1,.51,1,19.62,19.62,0,0,0-.65,5l-1.44-.85Z" transform="translate(-144.68 -12.7)" fill="#150035"/><path d="M189.33,151.75l1.12.49a.87.87,0,0,1,.53.89c-.08.84-.2,2.47-.21,4.69l-1.44-.86Z" transform="translate(-144.68 -12.7)" fill="#150035"/><path d="M308.16,91.21l-1.66,0c0-.92,0-1.82-.06-2.65l1.66-.1C308.15,89.3,308.18,90.24,308.16,91.21Z" transform="translate(-144.68 -12.7)" fill="#150035"/><path d="M306.27,86.74c-.81-6.12-3.45-6.55-3.48-6.56l.16-1.65c.16,0,4,.42,5,8Z" transform="translate(-144.68 -12.7)" fill="#150035"/><path d="M244.89,107.08l.82.81a.52.52,0,0,0,.46.14l1.14-.22a.51.51,0,0,1,.55.73l-.52,1a.54.54,0,0,0,0,.48l.56,1a.51.51,0,0,1-.52.75l-1.15-.17a.49.49,0,0,0-.44.15l-.8.85a.5.5,0,0,1-.87-.26l-.19-1.15a.54.54,0,0,0-.29-.38l-1.05-.49a.52.52,0,0,1,0-.92l1-.53a.52.52,0,0,0,.27-.39l.14-1.16A.51.51,0,0,1,244.89,107.08Z" transform="translate(-144.68 -12.7)" fill="#ffb000"/><path d="M244.63,113.24a.84.84,0,0,1-.27,0,.91.91,0,0,1-.64-.74l-.19-1.14-1.11-.56a.93.93,0,0,1,0-1.67l1-.53.19-1.23a.92.92,0,0,1,.62-.76.9.9,0,0,1,1,.21l.82.82,1.23-.2a.93.93,0,0,1,1,1.33l-.52,1,.57,1.1a.93.93,0,0,1-.95,1.37l-1.15-.17-.87.88A.92.92,0,0,1,244.63,113.24Zm-.1-5.89h0l-.21,1.23a.93.93,0,0,1-.49.71l-1,.53V110l1.05.49a1,1,0,0,1,.52.69l.19,1.15.16,0,.79-.85a.93.93,0,0,1,.82-.28l1.14.17.46-.34-.36.2-.56-1a.91.91,0,0,1,0-.86l.52-1-.18-.55.07.41-1.13.22a.91.91,0,0,1-.83-.25l-.82-.81A.09.09,0,0,0,244.53,107.35Z" transform="translate(-144.68 -12.7)" fill="#150035"/><path d="M245.46,109.58a.59.59,0,0,1,.32,0,.5.5,0,0,1,.28.14.77.77,0,0,1,.16.84.9.9,0,0,1-.51.37,1.39,1.39,0,0,1-.58.08l-.14-.41h.28a.79.79,0,0,0,.25,0,.39.39,0,0,0,.2-.13.25.25,0,0,0,0-.21.24.24,0,0,0-.14-.14.49.49,0,0,0-.26,0,1.23,1.23,0,0,0-.24.14l-.22,0-.27-1,1.07-.37.15.42-.64.23.06.25.14-.07Z" transform="translate(-144.68 -12.7)" fill="#150035"/><path d="M245.82,106.22a1.38,1.38,0,0,0-1.56-.72l-.27-.79a2.22,2.22,0,0,1,2.52,1.05Z" transform="translate(-144.68 -12.7)" fill="#150035"/><path d="M244.46,115.05a2.18,2.18,0,0,1-2-1.54l.8-.22a1.32,1.32,0,0,0,1.25.93Z" transform="translate(-144.68 -12.7)" fill="#150035"/><path d="M218.86,119.92l-27.45,11.94L207,160h0c.75,1.54,2.48,2.63,5.06,2.93,5.34.61,12.26-2.4,15.45-6.72,1.55-2.1,1.93-4.11,1.32-5.71h0Z" transform="translate(-144.68 -12.7)" fill="#fff"/><path d="M213.45,163.8a14.41,14.41,0,0,1-1.49-.08,7.16,7.16,0,0,1-5.34-2.76h0l-.12-.21a2.49,2.49,0,0,1-.15-.28l-.07-.11-16-28.9,29.14-12.67,10.48,32.14h0a7.23,7.23,0,0,1-1.65,5.72C225.11,160.8,218.78,163.8,213.45,163.8Zm-6-4.86.32.65c.65,1.35,2.21,2.22,4.41,2.47,5.08.59,11.65-2.28,14.69-6.39,1.31-1.77,1.74-3.52,1.2-4.91l-.29-.75.05,0L218.35,121l-25.77,11.22L207.38,159Z" transform="translate(-144.68 -12.7)" fill="#150035"/><path d="M227.42,156.4c1.55-2.1,1.93-4.12,1.32-5.71h0L227.21,146c-.42.35-3.89,3.22-4.08,3.6s.88,5.64.88,5.64l1.42,3.3A14.67,14.67,0,0,0,227.42,156.4Z" transform="translate(-144.68 -12.7)" fill="#150035"/><path d="M217,107.9,183.9,122.31l18.8,33.9h0c.9,1.86,3,3.18,6.1,3.54,6.44.74,14.79-2.89,18.64-8.11,1.87-2.53,2.33-5,1.59-6.89h0Z" transform="translate(-144.68 -12.7)" fill="#ffb000"/><path d="M210.5,160.68a17.21,17.21,0,0,1-1.78-.1c-2.94-.34-5.16-1.51-6.36-3.31h0l-.1-.18-.2-.34-.07-.13-19.25-34.71,34.8-15.14,12.54,38.44h0c.5,2.12-.17,4.54-1.93,6.91C224.46,157.09,216.88,160.68,210.5,160.68Zm-7.4-5.55.36.72c.8,1.67,2.74,2.76,5.45,3.07,6.15.72,14.18-2.78,17.88-7.78,1.62-2.19,2.15-4.36,1.48-6.09l-.29-.75,0,0L216.52,109l-31.45,13.68,18,32.44Z" transform="translate(-144.68 -12.7)" fill="#150035"/><path d="M227.43,151.65c1.87-2.53,2.33-5,1.59-6.89h0l-12-36.85-4.72,2-1,5.4-1,4.23,14.35,35A16.91,16.91,0,0,0,227.43,151.65Z" transform="translate(-144.68 -12.7)" fill="#150035"/><path d="M217.66,103.13h0l-2.78-4.68-2.36,1a16.17,16.17,0,0,0-3.16-.66c-9.15-1.06-21,4.11-26.5,11.52a16.57,16.57,0,0,0-1.67,2.77l-2.37,1,1.52,5.24h0c.85,3.31,4,5.72,9.15,6.31,9.15,1,21-4.11,26.49-11.53C219.07,110,219.49,106,217.66,103.13Z" transform="translate(-144.68 -12.7)" fill="#ffb000"/><path d="M191.92,126.63a20.49,20.49,0,0,1-2.5-.14c-4.83-.55-8.24-2.7-9.55-5.95h0l-.19-.64s0-.11-.05-.16l-1.77-6.09,2.75-1.2a17.54,17.54,0,0,1,1.62-2.62c5.64-7.62,17.87-12.94,27.26-11.86a17.36,17.36,0,0,1,3,.61l2.75-1.2,3.61,6.09h0c1.53,3.19.78,7.2-2.14,11.14C211.53,121.59,200.89,126.63,191.92,126.63Zm-11-8.47.26,1c.8,3.08,3.88,5.15,8.44,5.68,8.88,1,20.42-4,25.74-11.2,2.73-3.7,3.33-7.37,1.62-10.06l-.49-.78h0l-1.95-3.29-2,.86-.3-.1a16.37,16.37,0,0,0-3-.63c-8.87-1-20.42,4-25.73,11.2a15,15,0,0,0-1.59,2.63l-.14.28-2,.86,1,3.58Z" transform="translate(-144.68 -12.7)" fill="#150035"/><path d="M217.66,103.12h0l-2.78-4.69-2.36,1a16.76,16.76,0,0,0-3.16-.67,21.68,21.68,0,0,0-2.69-.11c-1.74,2.85-4.34,7.22-4.11,7.49s3.37,7.77,3.37,7.77l3.3,6.38a26.28,26.28,0,0,0,6.77-6.19C219.06,110,219.48,106,217.66,103.12Z" transform="translate(-144.68 -12.7)" fill="#150035"/><ellipse cx="197.2" cy="107.06" rx="19.72" ry="11.4" transform="translate(-171.04 75.05) rotate(-23.56)" fill="#fff"/><path d="M189.94,121a21.42,21.42,0,0,1-2.42-.13c-4.58-.53-7.83-2.51-9.16-5.59s-.56-6.82,2.18-10.53c5.44-7.36,17.25-12.5,26.33-11.46,4.58.53,7.83,2.51,9.17,5.59s.55,6.82-2.19,10.53C208.88,116.11,198.6,121,189.94,121ZM204.4,94.8c-8.16,0-17.84,4.59-22.52,10.92-2.38,3.21-3.09,6.36-2,8.87s3.87,4.15,7.83,4.6c8.55,1,19.68-3.85,24.81-10.79,2.37-3.21,3.08-6.36,2-8.87s-3.86-4.15-7.83-4.6A18.88,18.88,0,0,0,204.4,94.8Z" transform="translate(-144.68 -12.7)" fill="#150035"/><path d="M209.83,99.64s-.45-.58-.68-.8l-2.82-3.29-2.55,1.1c-6.45-.65-14.7,2.93-18.64,8.1l-2.58,1.11.48,4.27c0,.41.14,1.2.14,1.2l0,.1c.58,2.41,2.84,4,6.54,4.47,6.55.76,15.05-2.94,19-8.25C211,104.61,211.23,101.71,209.83,99.64Z" transform="translate(-144.68 -12.7)" fill="#ffb000"/><path d="M191.47,116.83a15.32,15.32,0,0,1-1.81-.1c-4-.46-6.57-2.27-7.26-5.1l0-.08a10.44,10.44,0,0,1-.17-1.4l-.54-4.81,2.94-1.27c4.13-5.25,12.4-8.85,19-8.27l2.91-1.26,3.22,3.76c.2.19.7.83.7.83l0,0c1.68,2.48,1.27,5.75-1.12,9C205.67,113.18,198,116.83,191.47,116.83Zm-8-10.45.41,3.66c0,.33.08.87.12,1.16h0c.53,2.13,2.6,3.5,5.84,3.87,6.29.72,14.46-2.84,18.22-7.93,1.93-2.61,2.33-5.17,1.1-7-.09-.11-.42-.52-.59-.7l-2.47-2.88-2.19,1-.21,0c-6.13-.62-14.16,2.86-17.9,7.77l-.14.17Z" transform="translate(-144.68 -12.7)" fill="#150035"/><path d="M209.11,98.75l-2.82-3.29-2.55,1.1a20.16,20.16,0,0,0-8.28,1.11c1.28,3.21,4.52,10.1,4.52,10.1l2.49,5a19.91,19.91,0,0,0,6.22-5.26c2.24-3,2.5-5.94,1.1-8C209.79,99.55,209.34,99,209.11,98.75Z" transform="translate(-144.68 -12.7)" fill="#150035"/><path d="M205.62,103.12c-3.53,4.77-11.16,8.1-17.05,7.42s-7.81-5.1-4.28-9.87,11.17-8.1,17.06-7.42S209.15,98.34,205.62,103.12Z" transform="translate(-144.68 -12.7)" fill="#ffb000"/><path d="M190.11,111.46a14.75,14.75,0,0,1-1.64-.09c-3.15-.37-5.4-1.75-6.33-3.9s-.4-4.74,1.49-7.3c3.68-5,11.67-8.45,17.81-7.75,3.16.36,5.41,1.75,6.34,3.89s.4,4.75-1.49,7.3C202.93,108.16,196,111.46,190.11,111.46ZM199.76,94c-5.36,0-11.72,3-14.8,7.17-1.52,2.06-2,4.07-1.3,5.65s2.46,2.61,5,2.9c5.62.65,12.93-2.53,16.3-7.09h0c1.52-2.06,2-4.06,1.3-5.64s-2.46-2.61-5-2.91A14.76,14.76,0,0,0,199.76,94Z" transform="translate(-144.68 -12.7)" fill="#150035"/><path d="M197.06,102.13h0a20.84,20.84,0,0,1,9.27-6.58,7.38,7.38,0,0,0-5-2.3c-5.89-.68-13.53,2.64-17.06,7.42s-1.61,9.19,4.28,9.87a17.83,17.83,0,0,0,7.33-.89C194.68,107.67,195,105,197.06,102.13Z" transform="translate(-144.68 -12.7)" fill="#fff"/><path d="M190.13,111.46a15,15,0,0,1-1.66-.09c-3.15-.37-5.4-1.75-6.33-3.9s-.4-4.74,1.49-7.3c3.68-5,11.67-8.45,17.81-7.75A8.22,8.22,0,0,1,207,95l.75.9-1.09.41a20.07,20.07,0,0,0-8.89,6.31c-1.79,2.42-2.2,4.82-1.12,6.59l.55.9-1,.33A20,20,0,0,1,190.13,111.46ZM199.76,94c-5.36,0-11.72,3-14.8,7.17-1.52,2.06-2,4.07-1.3,5.65s2.46,2.61,5,2.9a16.39,16.39,0,0,0,6.06-.57c-.84-2.22-.26-4.89,1.67-7.5h0a21.2,21.2,0,0,1,8.41-6.37,7.84,7.84,0,0,0-3.54-1.2A14.76,14.76,0,0,0,199.76,94Z" transform="translate(-144.68 -12.7)" fill="#150035"/><path d="M199.83,104.74l-.18,0c-.66-.07-.83-.64-.37-1.26l1.63-2.2a2.5,2.5,0,0,1,2-1l.18,0c.66.07.83.64.37,1.26l-1.62,2.2A2.52,2.52,0,0,1,199.83,104.74Z" transform="translate(-144.68 -12.7)" fill="#150035"/><path d="M211.86,119.11l-.72-.84a36.45,36.45,0,0,0,5.71-6.52l.92.62A36.63,36.63,0,0,1,211.86,119.11Z" transform="translate(-144.68 -12.7)" fill="#ffb000"/><path d="M226.08,154l-.78-.79a21.42,21.42,0,0,0,2.35-2.89l.93.61A22.37,22.37,0,0,1,226.08,154Z" transform="translate(-144.68 -12.7)" fill="#ffb000"/><path d="M210.32,157.21a12.75,12.75,0,0,1-4.64-.75l.42-1c.08,0,8.18,3.21,18-5.08l.71.85C219,156.1,213.83,157.21,210.32,157.21Z" transform="translate(-144.68 -12.7)" fill="#150035"/><path d="M206.33,126.11l-.43-1c.08,0,7.69-3.33,11.12-8.66l.93.6C214.33,122.66,206.66,126,206.33,126.11Z" transform="translate(-144.68 -12.7)" fill="#150035"/><path d="M212.84,122.6l-.73-.84a36.37,36.37,0,0,0,4.4-4.58l.89.64A35.34,35.34,0,0,1,212.84,122.6Z" transform="translate(-144.68 -12.7)" fill="#ffb000"/><polygon points="59.74 141.53 51.16 125.73 52.14 125.2 60.71 141 59.74 141.53" fill="#150035"/><polygon points="50.25 124.14 47.37 118.94 48.33 118.4 51.21 123.6 50.25 124.14" fill="#150035"/><polygon points="78.39 119.91 73.7 105.8 74.75 105.45 79.44 119.56 78.39 119.91" fill="#ffb000"/><polygon points="79.72 124.1 78.92 121.53 79.98 121.2 80.77 123.77 79.72 124.1" fill="#ffb000"/><path d="M189,125.94a36.08,36.08,0,0,1-1.95-5.78l1.07-.28a36.25,36.25,0,0,0,1.84,5.51Z" transform="translate(-144.68 -12.7)" fill="#150035"/><path d="M191.39,126.12c-.74-1-2-5.33-2.2-5.81l1.06-.32a34.48,34.48,0,0,0,2,5.49Z" transform="translate(-144.68 -12.7)" fill="#150035"/><path d="M189.65,116.18a40.54,40.54,0,0,1-1.62-5.52l1.08-.24a40.8,40.8,0,0,0,1.54,5.28Z" transform="translate(-144.68 -12.7)" fill="#150035"/><path d="M194,116.05a23,23,0,0,1-2-5.48l1.07-.25a23.27,23.27,0,0,0,1.86,5.15Z" transform="translate(-144.68 -12.7)" fill="#150035"/><path d="M196.93,98.49a7.37,7.37,0,0,0-6.14,2.67c-1.28,1.72-.59,3.31,1.54,3.56a6.92,6.92,0,0,0,3.6-.71,11.22,11.22,0,0,1,1.13-1.89h0a16.68,16.68,0,0,1,2-2.17A2.2,2.2,0,0,0,196.93,98.49Z" transform="translate(-144.68 -12.7)" fill="#ffb000"/><path d="M192.89,105.3c-.22,0-.42,0-.63,0a2.59,2.59,0,0,1-1.92-4.44A7.85,7.85,0,0,1,197,97.94a2.73,2.73,0,0,1,2.58,1.87l.08.32-.24.23a15.7,15.7,0,0,0-1.9,2.09,10,10,0,0,0-1.08,1.8l-.08.18-.18.08A7.83,7.83,0,0,1,192.89,105.3ZM196.37,99a7,7,0,0,0-5.14,2.48,1.52,1.52,0,0,0,1.16,2.68,6.43,6.43,0,0,0,3.13-.58,11.57,11.57,0,0,1,1.1-1.8,15.08,15.08,0,0,1,1.76-2,1.94,1.94,0,0,0-1.51-.77h0A4.07,4.07,0,0,0,196.37,99Z" transform="translate(-144.68 -12.7)" fill="#150035"/><path d="M227.08,115.55s2.13,1.77.95,5.27a89,89,0,0,1-7.33,14.65c-2.31,3.8-4.35,7.37-3,10.49a4.76,4.76,0,0,0,6.38,2.35,9.87,9.87,0,0,0,3.74-3.25,94,94,0,0,0,6.7-11.35,19.65,19.65,0,0,1,1.83-3.34h0a12.53,12.53,0,0,1,4.7-3.55c2-.89,4.75-2.35,6.25-4.32C249.88,119.1,227.08,115.55,227.08,115.55Z" transform="translate(-144.68 -12.7)" fill="#fff"/><path d="M222,149.59a5.75,5.75,0,0,1-2-.37,5.38,5.38,0,0,1-3.07-2.94c-1.55-3.64.91-7.68,3.08-11.24a87.61,87.61,0,0,0,7.25-14.49c1-2.92-.67-4.34-.68-4.36l1.05-1.28c.11.09,2.56,2.18,1.21,6.18a90,90,0,0,1-7.41,14.82c-2.37,3.89-4.1,7.08-3,9.72a3.77,3.77,0,0,0,2.15,2,4,4,0,0,0,3.12-.1,9.35,9.35,0,0,0,3.43-3,92,92,0,0,0,6.62-11.24l.38-.79a14.1,14.1,0,0,1,1.55-2.7,13.72,13.72,0,0,1,5-3.79c1.93-.84,4.53-2.23,5.92-4.06l1.32,1c-1.61,2.11-4.47,3.65-6.58,4.57a12,12,0,0,0-4.4,3.32,13.23,13.23,0,0,0-1.32,2.36l-.4.83a94.67,94.67,0,0,1-6.77,11.46,10.81,10.81,0,0,1-4.05,3.51A5.49,5.49,0,0,1,222,149.59Z" transform="translate(-144.68 -12.7)" fill="#150035"/><path d="M218.2,145.68a16.15,16.15,0,0,1,1.77-4.14,1.16,1.16,0,0,1,1.25-.52,9.88,9.88,0,0,1,4.15,2,1.1,1.1,0,0,1,.3,1,9.06,9.06,0,0,1-1.87,3.6l-2,1.06L219,147.67Z" transform="translate(-144.68 -12.7)" fill="#150035"/><path d="M230.81,134.79a16.34,16.34,0,0,0-4.91-2.47l.47-1.6a17.6,17.6,0,0,1,5.5,2.8Z" transform="translate(-144.68 -12.7)" fill="#150035"/><path d="M222.32,147.77l-.13,0a7.22,7.22,0,0,1-1.29-.37l-.8-.43.26-.49.78.42a6.52,6.52,0,0,0,1,.3,6.24,6.24,0,0,0,1.26-2.61l.54.11a6.47,6.47,0,0,1-1.53,3Z" transform="translate(-144.68 -12.7)" fill="#fff"/><path d="M435.73,174.57l-25-14.45a3.86,3.86,0,0,0-3.68-.45h0l-8.16,5a.08.08,0,0,0,0,.11c.36.76,3.75,7.87,4.05,9.18.13.55,1.2,6,2.42,12.31v3.19A11.12,11.12,0,0,0,407,195a0,0,0,0,1,0,0c1.28,6.6,2.37,12.23,2.39,12.38h0l3.7,8.75a.09.09,0,0,0,.12,0l8.46-4.94a.09.09,0,0,0,0-.11l-.63-1.79h0a19.62,19.62,0,0,1-.35-2.76l10.78,12a.08.08,0,0,0,.11,0l7.87-4.88.12-.07h0a3.86,3.86,0,0,0,1.5-3.45V184A12.1,12.1,0,0,0,435.73,174.57Z" transform="translate(-144.68 -12.7)" fill="#ffb000"/><path d="M431.63,219.47a.92.92,0,0,1-.68-.31l-9-10v.08l.6,1.68a.92.92,0,0,1-.41,1.11l-8.77,5.13-.44-.12a.89.89,0,0,1-.55-.52l-3.76-8.94-2.36-12.24a11.8,11.8,0,0,1-1.72-5.79v-3.11c-1.49-7.64-2.3-11.75-2.4-12.2-.21-.87-2.22-5.28-4-9a.92.92,0,0,1,.35-1.18l8.61-5.32.08.06a4.9,4.9,0,0,1,4,.66l25,14.45A13,13,0,0,1,442,184v26.2a4.65,4.65,0,0,1-1.89,4.15l-.17.11-7.82,4.85A1,1,0,0,1,431.63,219.47Zm-11.79-15.19,11.93,13.31,7.34-4.55.54.64-.43-.71a3.08,3.08,0,0,0,1.12-2.75V184a11.34,11.34,0,0,0-5-8.73l-25-14.45a3.08,3.08,0,0,0-2.89-.42l0,0-7.5,4.63c1,2.09,3.54,7.51,3.83,8.74.12.48.91,4.52,2.43,12.34l0,.18v3.17a10.38,10.38,0,0,0,1.55,5.06l.1.15,0,.21,2.37,12.24,3.33,7.89,7.2-4.2-.46-1.34a22.88,22.88,0,0,1-.36-2.88Z" transform="translate(-144.68 -12.7)" fill="#150035"/><path d="M435.71,174.57l-24.17-14L399.78,168l25.81,13.72,5.26.84,8.1-4.82A10.49,10.49,0,0,0,435.71,174.57Z" transform="translate(-144.68 -12.7)" fill="#fff"/><path d="M431,183.4l-5.82-1L398.12,168l13.41-8.43,24.59,14.25a11.31,11.31,0,0,1,3.51,3.38l.51.73Zm-5.16-2.51,4.82.77,7.05-4.2a8.9,8.9,0,0,0-2.44-2.17l-23.73-13.75-10.13,6.37Z" transform="translate(-144.68 -12.7)" fill="#150035"/><path d="M432.88,186.84s-10.11,2.39-10.76,2.63-10.45,8.21-13.83,12c.67,3.47,1.14,5.86,1.15,6h0l3.7,8.75a.09.09,0,0,0,.12,0l8.46-4.94a.09.09,0,0,0,0-.11l-.63-1.79h0a19.62,19.62,0,0,1-.35-2.76l10.78,12a.08.08,0,0,0,.11,0l7.87-4.88.12-.07h0a3.86,3.86,0,0,0,1.5-3.45V184a8.72,8.72,0,0,0-.24-2Z" transform="translate(-144.68 -12.7)" fill="#150035"/><polygon points="289.99 177.64 289.42 176.69 295.4 173.06 295.98 174.01 289.99 177.64" fill="#ffb000"/><polygon points="289.99 201.84 289.42 200.9 295.4 197.26 295.98 198.21 289.99 201.84" fill="#ffb000"/><path d="M427.75,179.56l-25-14.47c-3-1.73-5.4-.33-5.4,3.12v26.26a12,12,0,0,0,5.4,9.37l2.85,1.65a2.4,2.4,0,0,1,1.05,1.61,14.19,14.19,0,0,0,5.49,9.11c.79.59,1.42.08,1.18-.93a20.78,20.78,0,0,1-.57-4.41c0-.69.49-1,1.08-.62l13.93,8.06c3,1.73,5.4.33,5.4-3.12V188.93A12,12,0,0,0,427.75,179.56Z" transform="translate(-144.68 -12.7)" fill="#ffb000"/><path d="M430.16,219.89a5.75,5.75,0,0,1-2.83-.86l-13.75-8a20.72,20.72,0,0,0,.54,4,1.77,1.77,0,0,1-.6,2,1.64,1.64,0,0,1-1.89-.19,15,15,0,0,1-5.81-9.65,1.58,1.58,0,0,0-.65-1l-2.85-1.65a12.71,12.71,0,0,1-5.81-10.09V168.21a4.57,4.57,0,0,1,2-4.22c1.28-.75,2.93-.61,4.64.38l25,14.47A12.72,12.72,0,0,1,434,188.93v26.26a4.57,4.57,0,0,1-2,4.22A3.56,3.56,0,0,1,430.16,219.89Zm-16.83-10.62a1.79,1.79,0,0,1,.9.26l13.93,8.06a2.49,2.49,0,0,0,4.16-2.4V188.93a11.06,11.06,0,0,0-5-8.65l-25-14.47a2.49,2.49,0,0,0-4.15,2.4v26.26a11.08,11.08,0,0,0,5,8.65l2.85,1.65a3.21,3.21,0,0,1,1.46,2.2,13.27,13.27,0,0,0,5,8.48,21.92,21.92,0,0,1-.59-4.57,1.55,1.55,0,0,1,.72-1.42A1.32,1.32,0,0,1,413.33,209.27Z" transform="translate(-144.68 -12.7)" fill="#150035"/><path d="M416.46,183.55l1.81,5.3a3.11,3.11,0,0,0,1,1.41l4.05,3c1.09.81,1.52,2.61.73,3l-2.92,1.61a1,1,0,0,0-.39,1.13l.7,5.07c.18,1.36-.95,1.66-1.93.51l-3.62-4.3a1.7,1.7,0,0,0-1.23-.72l-3.62.11c-1,0-2.11-1.58-1.92-2.73l.69-4.27a2.53,2.53,0,0,0-.38-1.57l-2.93-5c-.79-1.35-.36-2.64.73-2.19l4,1.66a.75.75,0,0,0,1-.26l1.81-3.2C414.57,181.32,416,182.13,416.46,183.55Z" transform="translate(-144.68 -12.7)" fill="#fff"/><path d="M420.72,206.2a2.49,2.49,0,0,1-1.84-1l-3.62-4.3a1.06,1.06,0,0,0-.58-.41l-3.62.1a2.43,2.43,0,0,1-1.84-.95,3.56,3.56,0,0,1-.92-2.74l.69-4.27a1.78,1.78,0,0,0-.28-1l-2.93-5a2.66,2.66,0,0,1-.08-3,1.55,1.55,0,0,1,1.85-.35l4,1.66h0l1.76-3.11a1.5,1.5,0,0,1,1.46-.77,3.24,3.24,0,0,1,2.42,2.28h0l1.81,5.3a2.29,2.29,0,0,0,.71,1l4.05,3a3.76,3.76,0,0,1,1.46,3,1.66,1.66,0,0,1-.83,1.42l-2.92,1.61s0,.09,0,.29l.69,5.07a1.79,1.79,0,0,1-.91,2A1.74,1.74,0,0,1,420.72,206.2Zm-6-7.4a2.53,2.53,0,0,1,1.84,1l3.62,4.3a1.31,1.31,0,0,0,.47.39.73.73,0,0,0,0-.25l-.69-5.06a1.84,1.84,0,0,1,.81-2l2.93-1.61a2.23,2.23,0,0,0-.84-1.65l-4-3a3.87,3.87,0,0,1-1.29-1.81l-1.81-5.3a2,2,0,0,0-.92-1.14L413,185.79a1.57,1.57,0,0,1-2,.62l-4-1.66a1.72,1.72,0,0,0,.28,1l2.93,5a3.3,3.3,0,0,1,.49,2.13l-.7,4.26a2.07,2.07,0,0,0,.54,1.39c.26.29.49.4.54.38l3.62-.11Z" transform="translate(-144.68 -12.7)" fill="#150035"/><polygon points="275.92 175.16 273.67 168.51 275.24 167.98 277.49 174.63 275.92 175.16" fill="#150035"/><rect x="404.15" y="193.29" width="4.49" height="1.66" transform="translate(3.89 550.7) rotate(-80.61)" fill="#150035"/></g></svg>